<mxfile host="app.diagrams.net" agent="Mozilla/5.0 (Windows NT 10.0; Win64; x64) AppleWebKit/537.36 (KHTML, like Gecko) Chrome/131.0.0.0 Safari/537.36" version="25.0.3">
  <diagram name="Page-1" id="h71D6mjIp5E7ISKj3ytV">
    <mxGraphModel dx="853" dy="493" grid="1" gridSize="10" guides="1" tooltips="1" connect="1" arrows="1" fold="1" page="1" pageScale="1" pageWidth="850" pageHeight="1100" math="0" shadow="0">
      <root>
        <mxCell id="0" />
        <mxCell id="1" parent="0" />
        <mxCell id="O5ijzV2LS1QIJ1Rby5tI-1" value="" style="shape=image;verticalLabelPosition=bottom;labelBackgroundColor=default;verticalAlign=top;aspect=fixed;imageAspect=0;image=data:image/png,iVBORw0KGgoAAAANSUhEUgAADeAAAACGCAIAAACAdlz2AAAAAXNSR0IArs4c6QAAAARnQU1BAACxjwv8YQUAAAAJcEhZcwAAEnQAABJ0Ad5mH3gAAIAdSURBVHhe7d15QFRV/z9wQEARRUTcUEFRBEUxd0xwQ8TMFdwyU9JQXHHPLbXMBdMsl8TUrDQ1tRIzNzJSS0MNLZFHS9PENSnXtAd9+P4+cT7OD5FlBu6de+7M+/VHec7M3DnMvffcc+68516b/wMAAAAAAAAAAAAAAAAAAAAAAAAAAEUhoAkAAAAAAAAAAAAAAAAAAAAAAAAAoDAENAEAAAAAAAAAAAAAAAAAAAAAAAAAFIaAJgAAAAAAAAAAAAAAAAAAAAAAAACAwhDQBAAAAAAAAAAAAAAAAAAAAAAAAABQGAKaAAAAAAAAAAAAAAAAAAAAAAAAAAAKQ0ATAAAAAAAAAAAAAAAAAAAAAAAAAEBhCGgCAAAAAAAAAAAAAAAAAAAAAAAAACgMAU0AAAAAAAAAAAAAAAAAAAAAAAAAAIUhoAkAAAAAAAAAAAAAAAAAAAAAAAAAoDAENAEAAAAAAAAAAAAAAAAAAAAAAAAAFIaAJgAAAAAAAAAAAAAAAAAAAAAAAACAwhDQBAAAAAAAAAAAAAAAAAAAAAAAAABQGAKaIK9r164lJCQsXrx40KBBQUFBAQEB1atXd3Nzs7e3d3Z2rly5sq+vb9OmTZ9//vnJkyd/8sknP//8M78SAAAAAAAAAAAArNK9e/eOHDmydu3a6dOnjx49OjIyskePHiEhIc8//3y/fv2GDRs2efLk5cuXJyYm/vHHH/waAAAolJSUlM2bN8+aNWvs2LGDBg2KiIho3759p06dXnjhhaFDh06cOPGtt97avXv35cuX+QUAAAAAAADWBwFNkMs///wTHx8/fPjwmjVr2hRK9+7dV61a9csvv/ASAQAAAAAAAAAAwKKdP38+Li6uR48e1atX57OExilfvnybNm0WL1588uRJXhYAAOTt9u3bmzdvHjx4sL+/P/ekxilXrhz6WwAAAAAAsE4IaIIsdu3aFRkZWb58eZ6sF1lgYODChQvT0tL4DQAAAAAAAAAAAMCC/Oc//5k1a1bLli35hGDRPPPMM2PGjNm/fz8vHQAAHrtz5857773XuXPn4sWLc6dZBOhvAQAAAADAqiCgCRq7fv36kiVLlDqL+jRXV9ehQ4d+8803/H4AAAAAAAAAAACgc/Hx8f369StWrBifBFRU+/btV61adffuXX4zAAArdvr06enTp9eoUYO7SEWhvwUAAAAAAGuAgCZo5tGjRwsXLqxatSpPxFXWs2fP7777jt8bAAAAAAAAAAAAdOjjjz9u2rQpn/JTk5eX19y5c+/fv89vDABgZX755Zfhw4crcsnM/KG/BQAAAAAAy4aAJmjjk08+yf9EqqenZ9euXWnyP2/evHXr1iUmJiYnJ587dy49Pf3hw4f37t27fPlyamrq4cOHt23btmTJkgkTJvTu3btRo0b8+jyMGjWKFsKNAAAAAAAAAAAAAJ1ISEh4/vnn+TRfHipXrty2bdvRo0evXr06MW+ffvrpjBkzwsPDa9euza/MQ4MGDdauXcstAACwDnfv3p09e3a5cuW4K8yNs7NzYGBgVFTUkiVLuG/NDfpbAAAAAAAABDTB3H755ZcePXrwhPtJND9/+eWXV6xYcebMGX626W7fvr179+5Zs2aFhYXlepOjChUqLF++nJ8NAAAAAAAAAAAAcrtx48Yrr7zCZ/ee1KxZs8GDB7/11ls7duy4ePEiv8AUN2/e/P77799///0xY8aEhobycp/UsWPHw4cP8wsAwCwyMzMvX768ffv22Cxbtmw5evRoRkYGPwyq+fjjj+vVq8fdXzalS5fu1q3blClTNmzYULgvcdDfAgAAAACAdUJAE8xq06ZNXl5ePM9+rEmTJjSl/+abb/hJyrlw4cKqVat69+5dtmxZfrPHXnnllfT0dH4eAAAAAAAAAAAASOm7775r0qQJn9R7rEqVKiNGjPj666/5Sco5ceLErFmzGjRowO/0mKur64cffshPAgA1Xbx4cdy4cbTT8e6XjZOT08KFCxHTVMl///vfMWPG8GedTUhIyLJlyy5dusTPUwj6WwAAAAAAsBIIaIL5TJo0iafXWYoVKzZw4MC9e/fyw2q6evXq3Llzc9xBo1GjRgkJCfwMgDzUqVPH0dHxypUrXAYAAAAAAAAAAHNZs2ZN6dKl+XRelk6dOq1du/bOnTv8DNV89dVXkZGRzs7O/MZZpkyZwg8DgArS0tJ69erF+1veoqKikNFU3OHDh1u1asUfcRY/Pz/q9JKSkvgZqkF/CwAAAFA44eHhq1at4gIASAwBTTCT7GdVypcvT1PrlJQUfsxc/v7772XLljVq1IjbkeWjjz7ihwFyg4AmgIIePHhw5MiRHTt2fPLJJ++99968LMuXL1+3bl18fHxiYiKubQwAAAAAAAAGs2bN4lN4Njbu7u4TJ06kSSU/Zi7nz59fsGBBw4YNuR02NhEREfwYACgnMzNz48aNJUuW5D2tICtWrOBXghK++OKLUqVK8YdrYzNgwIDPP/+cHzMX9LcAAAAAprK3t0dAE0AXENAEc+jatSvPp21shg8ffvbsWX5AC48ePXrnnXd8fHy4QchoQr4Q0AQookOHDs2aNSsiIiLHZYzz4uHhERYWNmHChISEBOqxeSkAAAAAAABgZbKnMwcNGnT69Gl+QAt///03tccQHWvRogU/AABKyMjIGD9+vNi/jBQQEIAf+irl66+/5o/VxqZ58+ZffvklP6AF9LcAAAAAxkNAE0AvENAE1fn6+oqJdNeuXRMTE7lWa3/99dfs2bMNt8zQ9owDyAwBTYDC+eSTTyIjI6tWrSq62cIpVapUv3794uLiLl++zMsFAAAAAAAAKzBy5EgxMWzZsmV8fDzXai05Oblv376iYdWrV+daACiajIyMqKgosWcZz97e/uDBg7wIKIKkpCT+TG1spk+f/s8///ADmkJ/CwAAAGAMBDQB9AIBTVCXmD8TmthzlUwOHjzYtGlT0cLU1FSuBcgGAU0AU61cubJx48aia1WKh4fHrFmzENMEAAAAAADNZWZm7tu3z8/Pj6Yqrq6uCxYsuH//Pj8GCgkNDRWTwbFjx3KVTJYvX168eHFqnqOjI1cBQGFRpxobGyt2eVPFxcXxUqCw9u/fLz5Mf3//3bt3c6000N8CAAAA5A8BTQC9QEATVNSwYUOaOVeuXHnDhg1cJZ8///wzMjIy6xSEzaVLl7gW4DEENAGMp0Y0MzsR07xx4wa/HwAAAAAAgNlt3brVzs6OZylZoqKiMjIy+GEosq5du9Kn6uLisnr1aq6ST2JiYqNGjaidAQEBXAUAhRIfH5+jUzXe/PnzeSlQKD///LP4JHv16pWWlsa1kjH0t23atOEqAAAAAHgMAU0AvUBAE9Ty8ssv05yZZs4//fQTV0ls9uzZ1NrGjRvfvHmTqwCy1KlTx87O7tixY1wGUFpmZubly5e3b98em2XLli1Hjx7V3Xd7n3/+eatWrf49oZs3Dw+PsLCwCRMmvPXWW++///6nn366Owv9g4pUSQ/RE+hp/II8+Pr6rlmzht8YAKxYenr6nj17li9fPmPGDOo8ExMTHzx4wI8BAAAAFKRwc7Fbt241b96cJyeP2dra7tq1i58BRTN8+HD6SBs0aHDo0CGuktUff/whbr87YsQIrgKQksynnnLtVI1HfxQvSBo6OtF38eLF8uXL08c4a9YsrpIV9be9evWips6ZM4erAAAAACALApoAeoGAJqhiyZIlNFtu167d77//zlXSW7p0KbW5e/fuuOYBZIeAJqjn4sWL48aNc3V1pc4nBycnp4ULF+qiOzp8+HCfPn243dmULFmySZMmL730Ev0hiYmJ6enp/AIj0JPpJXQoiYqKCgwMdHZ25oVm07Vr1++++45fAADWhLqI2NjYXMPcdMiOiYm5d+8ePxUAAAAgN0WZi504caJ06dL87GxwFTdFLF68mD7MVq1anTt3jqukFx0dTW2ePHkylwFkIv+pp4SEBFtbW26Tidzc3FJTU3lBEtDXib67d+8+++yz1LZFixZxlfRERvP999/nMgCAhXr48GF6ejqNh5OTkxMTE3/88cezZ8/+8ccf//zzDz8DQJ9oG6YtmbZn2qrFtv3LL79cu3bt77//5mdAoSCgCaAXCGiCKjZv3tyjR4+//vqLyzrx4Ycf0iSfCwBZ6tSpYyPlr7FB19LS0sQpxfzJf5u82NhYbms2nTp1ev/99xW8ETktihZIi+U3yIYawE8CACtw+/btUaNGFXjzu5CQkFu3bvFrAAAAALIp+lwsr4AmrumlCFo7Xbp0UXA6aR6TJk3y9/dPSUnhMoAE9HLqiTpPborpwsLC7t+/zwvSlB5P9G3evJmapLvv8ulzJlwAALAUv//++6effjp9+vRu3bp5e3uLo0auKlas2L59+7Fjx65Zs+bkyZP8egAp3bx586uvvlq0aBENgYKCgtzd3Xk7zk3JkiUbNWr04osvzp49e8uWLZcuXeKlgBEQ0ATQCwQ0QS2PHj3ifwHomQho4osWUEpmZubGjRtppiGmHAVasWIFv1IyFy5cyHHhTC8vr1mzZp04cYKfoQJaOL0FvRG/ZRZqBjWGnwEAluvbb7+tVq0a7/kFiYmJof6WXwkAAACg3FwMtzhXm06vDIR0JshDX6eeBgwYwO0wkZ2d3d69e3kp2tH1ib7NmzfzvwAAwOxu3rz52WefjRw50t/fnw8SpqtVq9b48ePj4+NpabxcAE3RpkgbJG2WTZs25c20sBo2bDh16tSvvvoK12IoEAKaAHqBgCYAQH5EQLNTp04PHjzgKoDCysjIoGmJmFoYKSAgwKSbg5vH559/7uPjw020salfv/6iRYvMdtVkeiN6O3pTfnsbG2oMNYkfBgCLk5mZuXTp0gIvnJldhQoVTp8+za8HAAAAq6fsXGz79u0ODg78vCzh4eGSXMUNAKyc7k499e/fn9thoujo6IcPH/JSNGIxJ/oAAMCckpOTx40bV7FiRT42KKFChQqjRo367rvv+D0AzI42P9oIaVPkjVI55cuXp4FfQkICvxM8BQFNAL1AQBMAID8ioOnq6oqbBUARZWRkREVFiemE8WhUffDgQV6EHL766qtixYqJ5tG86N1339Xkksn0pvTW1ADRErJ27Vp+DAAsSGZmZmxsLO/npli/fj0vAgAAAKybGnOx7777TlwRxMHBYcyYMffu3eMHAAC0o8dTT/nf7DIvISEhml9LyWJO9AEAgNns2LGjb9++fEhQR8eOHfFFCZgZbXK04fEmqKbAwMC33nrr6tWr/MbwGAKaAHqBgCYAQH5EQJNMnz49EzdLhcIqdMCIxMXF8VIksH///rJly4qG9evXLzU1lR/QCDWAmiHaQ9atW8cPAICl2Lp1q0nXzjQYNWoULwIAAACsmMXMxQAA8qfT7q5q1aqGnwEbqWPHjpqnM3FwAQAAkxw5ciT7Fxl5cXZ2rlOnTvv27SMiIgYNGjR27NhZs2bRfwcPHtyrV6+wsLCGDRuWK1eOn523Vq1a4Z5jYAbr1q0LDAzkzS5fFStWbNSoEW3DtCXT9iy27XHjxkVFRfXp06dTp04tWrSgYSE/O1+enp7z58+/e/cuNwIQ0ATQD4sKaKanp+/Zs2f58uUzZszYsmVLYmIibkmsOR2tlIyMjJSUlI0bN06dOnX16tVffPHF+fPnEcgDQ0DT1dU1KSmJay0Rbe2XL1/evn17bBbaYY8ePUr7BT+sQ9Tb0Cpbv379xIkT6b/0p127do0fM7v4+PjCBYwIzTR4KVr78ccfaeZDTSpfvrxUv8Kkxhgupbljxw6uBZCMjrpZecZvycnJdPwVe7epBgwYwEsBAAAAK2YZczEAgALptLurWbOmj48Pt8MIY8eOvX//Pr9YOzi4AACAkdLS0saPH5/XrxHoIPjiiy+uWbMmOTk5PT2dX1OQe/fupaambtu2bcKECfnE4/r06XP48GF+DYCivvjii/bt2/Om9pTq1atHREQsXrz40KFDv//+u0l34aNdhl61YsWKl19+uV69erzEp9StW3fZsmX8GquHgCaAXthsKsiSJUteywM/4zGuzcJVZkHdTb9+/QwX9MrO1tb2ueee++ijj/ipYC46WikbNmx44403GjZsSA3jJmbj4eExY8YMfipYpSpVqvDWYGNTqVIlGu3xA+rgPjQLV6lv+fLlzz//vLOzM/+d2Tg6Ovbv3/+TTz7hp+oBtXbixIl5ndulepoS8FPN5YMPPqhVqxa3wHT05/CCNPXee++JdCZNe+bNm8e10qAmUcPEJ7Z06VKuBXhSXFwc97BZuFZ9eulmZRu/0cfy7LPPcgtMR38LLwjAonGPlmX16tVcCwCgH9yFvfbaaRUcPXq0QYMGPDgw3YoVK3hBYF7/+c9/Dhw4QJ//hCzvvvvu1q1bU1JS+GHJUMN27NixaNGioUOHvvnmm8uWLdu3bx/9CfwwwGNHsuEq5ei3u/Py8goPD3dxceGm5M3T0/PDDz+UYeeysIPLTz/9tHnz5rfeemvw4MH0X2re999/z49JRkdNBQ1xP5uFqwC0Q+PYatWq8QEgm8aNG0+ePPnLL7/k5xUNjZznz58fGhrKS3/S1KlT+XkASti/f39ERARvXk9q1arV9OnTt2/fzk81DnfZWbgqm8TERDrod+nSpUyZMvw22TRv3nzDhg38VCtWrFix2bNncwEACot7oiw///wzZyoVxZ0XAAAAAAAAAAAAAAAAAAAAAAAAAIAVUukS1P9eIDB/FSpU4CY8qWTJkvyMxwwXIHRxceEqNbm7u+d1PfCnOTs788tATTpaKZUrV871Qla5srOzox2BXwlWxt7enreDx6j3o+2HH1aa4eY4pUuX5irVlC1bNtcLx+aqTJky/DJZVapUqUSJEtzcgtBqpefzK9VnzGUA8lK8eHH1tjfjlSpVihpjhs2y6MSn/fQoBYBUrFgxa8f6F/WBXKsavXSz0o7f3Nzc+F1NZ+Z+HkBDrq6uvN1nXe6dawEA9KMoR3wAAAAAAAAAAAAABakV0OT/5+3cuXPchCdFRUXxMx5zdHQUD8XGxnKVOjIzM5cuXWqIMRmjQoUKp0+f5teDCvS1UtLS0po0acLtMM64ceP4xWBl6tSpwxtBNtHR0RkZGfwMRRm+Yp85cyZXqYAaP378ePFGRgoICEhPT+fXy+f48eO53iciH6tXr+YXq2/AgAH8riaiTnXv3r28FO3ExcVRY2bNmsVl6b333nvU4IkTJ3IZ4LErV65k7Vv/2rhxI9eqQC/drOTjt/nz5/O7mm7FihW8FABL9+GHH/J2b2Pz559/ci2ArK5du5aQkLB48eJBgwYFBQXVr1/f09NT3KaK/kv/phqqp0fpOfRMej6/EizXZ599Jjqx6yro3bu3WLipaIC0efNmXgqojPb0lStXOjk58adfkAULFvArtXD+/PmXX36Zm1IQNze3AwcO8CvB6lWpUkVsGNHR0VylHP12dzVq1BgzZgwXdELXB5eTJ0+GhYVxgwri6+t76tQpfqXZ6aipIBUHBwexVcyYMYOrAMzr+PHj9erVE9shoeP+kSNH+DHzOnbs2MiRI7kdNjbVqlX74osv+DEAU5w9ezb7Qblly5Yff/wxP1ZkhojRtGnTuMo4u3fv7tWrl3gtqVy58gcffMCPWRl7e/u3336bCwBQWNSHcIdiY5OcnMwnLhWlv4BmZmYmLV+8kUnWr1/PiwCl6WulXLhwwcfHh1tgtCZNmvz111+8CLAmuQY0CW3ztOXzk5RjhoBmRkYGdeDiXYxHY7uDBw/yIiSTlJSU/dpRRoqIiHj48CEvQmWNGjXidzURTd3N1sh8HDhwQEfpTGHdunU0G+ECwGPmCWjqpZuVf/zWr18/fksThYaG3r17l5cCYOkQ0ARdSEhIGDt2bO3atXljNYW/vz+NRb/77jteFlgcQ0CT/P7771yrkJCQEF60iSSZi1kDff2CFD/5hqIw/LRYja1Cv91drVq1pk2bxgWd0O+nLflP3LPTUVNBNoaA5oIFC7gKwIxu3rxJhzaxEbZs2XLXrl38gHZoNt21a1fRJEdHx8TERH4AwDiXL1/29/cXm5Cfn19cXBw/oJDixYuLhc+bN4+rTLFjx4727duLJZD333+fH7Am9vb2q1at4gIAFJaqpygF/QU0t27datJlfgxGjRrFi3jKqVOnAgMD6Tk0cI+Jibl9+zY/AMZRY6Wo5NatW4U7geLm5paamspLAWsybNgwb2/vPn36GCb2Am3ztOXzk5SjdkCz0HEcoviYWxGFi1yTunXr3rhxg5eisho1avC7moI6K+qyeBEAoAQzBDR11M3KP36bPHkyv6Up6KBAhwZeBIAVQEATZJaSkjJlyhTDt1NF5OvrS0ujZfLSwVKoevYzr59c5g9zMbPR1y9I8ZNvKCJVA5rPPvusWLhJZOju9BjQDAgI4E/QFJp/2vL/xN1AR00FCSGgCRp69OiRuEEEmTVrFhX5AQmsWbOmfPnyom3IaILxUlJSxGZDaKu+efMmP6CcIgY0hVWrVhkuVz9//nyutRoIaAIoAgHNnJKTkwsxMRMGDBjAS3nS05M9nIc1iRorRSU0P4+Ojub3NlHJkiWPHTvGCwJrMmbMmGeeeYb+QVOp77//XoS5BdryqQMRT1OKYW9SKaAZHx9fuDgOkXBEe/fu3dDQUG6fiTw9Pa9cucILUllAQICpH3vHjh1xJAJQnBkCmnrpZnUxfluyZAm/pdH8/f2RzgRrg4AmyGnv3r0DBw4sVqwYb53KoWXSkmn5/E6gf6qe/WzRogXmYtLS1y9IaasIwU++oWhUDWiGh4fb2tqK5RtJku5OjwHNtm3b6u7gooufuAs6airICQFN0JCTkxNte1WrVt28eTNXyeTHH39s06aN2EHOnj3LtQB5O3LkiNhgGjRo8NVXX3Gt0hQJaJL//Oc/PXr0EIv64IMPuNY6IKAJoAgENJ/w8OHDvn37ircohFy/885rmUuXLuVnQL7UWCnqOXTokGErNZU5s1wFyszMvHz58vbt22lfI1u2bDl69GhGRgY/DIoyBDQF+vB/+umnpk2big1D8ct0qRrQvHXrVvPmzcXyC4E2OV6QNDZu3MiNM13r1q3NdgPcFi1aUB/Cb2yEsWPH3r9/n18sk/T09D179ixfvnzGjBnU8yQmJj548IAfkwm1Kikpaf369RMnTqT/0qZ77do1fgysm9oBTb10s3oZv5nayYeHh1tqOg1jP8gHAprGwE5kTufPn4+MjOSNsiA0/alevTpNuNq0adOwYUNvb+9y5crZ29vzw/mid6H34ncFPVP17GdYWFjlypV56UaQdi5mkXT0C1L85BsUoWpAMyoqyqTf4MnT3ekxoNmjR4+KFSvyR2kEzT9tvfzEneioqSAtBDSNpJdT/Toirq9MExCZb/vwzz//DB8+nNpJe8rVq1e5Vm74ukcrv/zyi/jZLY0zVf0JhFIBTWHu3Lliafv27eMqK4CAJoAiENB8Qmpqqpubm3gLU9na2iYkJPCCsqFDuLe3Nz8pGzNf2VG/1Fgp6hk1ahS/t+k6deokw+Tk4sWL48aNy/V0m5OT08KFC/Eto+JyBDQF+pypoxNfJCh7zV1VA5q0x5n6Y3oDCS/5QLsk7ZjcPtOZ7Ra9pGXLlt27dzfmRHnNmjVpzpCZmcmvlEN6ejpt8B4eHtzKbGgviImJuXfvHj9VU7Rj0uQ8+2Vus6P6M2fO8FPBWqkd0NRLN6uX8dumTZvoHY25Ma6Li8uGDRukum2QUjD2gwIhoJk/7ERmtnbt2urVq/NH/CR3d/cuXbrMmzfvk08+OXjwYP4nua5evXr48GE6WNPzIyIi8spA0HvRO/JrLNf9+/fnzp0r23RMQaqe/aQ5I83Z9TsXs2D6+gWpxfzkG7SlakBz2LBh/v7+euzu9BjQ7NmzZ1BQkI4+bb38xJ3oqKkgLQQ086eXU/26Ex4eTp+hXtIFNNGm1rZr1+7OnTtcJR983aOtP/74w9fXlz7qhQsXcpVqlA1okh07doiL5hw+fJirLB0CmgCKQEDzCdk/DlP5+fnl+nOKvAKa/fr1wzlZY6ixUlRCo8ygoCB+b9NpflHVtLS0Xr16cWvyRjsmvmJUVq4BTSEhIUGciZs+fbpSPYbh1J4aAc05c+aIhRdCWFiYbNcRoZ2iSpUq3D4T2dra7tq1ixekvpYtW9K+uW/fPnd3d27BU8qXL79kyRLZPuTbt2+PGjWqwIuaKBtTLoRHjx5t2LCBPkNuUB5o/0pKSuLXgFVSO6Cpl25WL+M3EdBMTk6mNxXv/jQnJ6dJkyZRZ8WvsSAY+4GRENDMC3YiM7tx40auF85s06bNokWLDh48yM8rrCNHjixevDjX+wvT+1p2+OnNN9+kP5O2Z0vdVtUOaNJHp8e5mMXT1y9ILeAn3yADtQOazZs312N3p9OAZufOnfXyaevoJ+46airIDAHNvOjlVL8eTZo0iT66kSNHclkP3nvvPWpzeHi4hL94x9c9mnv48CENdWgV0IrgKjUpHtAkycnJQUFBfn5+P//8M1dZNAQ0ARSBgOYT5s+fL5ZfCCtWrOClPAm3OC8iNVaKSq5cuWLSLYaz8/f3v379Oi/I7DIzMzdu3FiyZEluTUHM/MFavHwCmoRG/zQHoDnt3r17uapoVA1oDhgwQCzcVAr+gQo6duyY8ftFDjS1MOcZUhHQpH/cvn17xowZNWvWFM1wcHDw9fUdPXr0Dz/8IOE0+NtvvzV8eVCgmJgYrX7YcPXq1a5du3I7CqJtfw6aUzugqZduVi/jNxHQpO6aLF++vH79+uIkMv23evXqAwcO3LNnj0VGVTD2A5MgoPk07ETm99133zVp0oQ/0Czly5cfPnx4YmIiP0M5NAWbMmVKjux+vXr1duzYwc+wODR8pUGsra0tHRm5yrKYIaBJ/9DXXMwa6OgXpHr/yTfIwwwBTfqH7ro7/QY06R+6+LR19BN3HTUVZIaAZq70cqpfp1JSUqZPn84F/Vi3bt3mzZu5IA183SOJefPmqXFKJ1dqBDQJbUvW8+MNBDQBFIGA5hMK/V1yaGhoPrc2OHHiRI5fOjZs2BCHcyOptFLUUOiApp2dXXx8PC/F7DIyMsaPH89NMU5AQEB6ejq/Hoos/4Am2bp1K20kTZs2VeRjlzOgGR0d/fDhQ16KNAod0KQPOTk5mZdiFoaApl5kZmYuXbpUBKGMVKFChdOnT/Przej48ePGn1oSVq9ezS8G6yNtQNPM3axexm+GgCaXrQPGfmAqBDRzwE5kfmvWrCldujR/mjY2tWvXnjt37tWrV/lh1axcubJx48b8rllmz57Nj1kcOiba2tr6+fmlpaVxlQUxT0ATZKOjX5Dq9yffIBvzBDR1R9cBTV3Q0U/cddRUkBkCmjno6FQ/AL7usU4qBTStCgKaAIpAQPMJAwcOFMs3iY+Pz4ULF3gReThz5kzHjh3pyTRC7d27txm+SLAY/fv3F5+zSYxZKYq7cuWKm5sbt8AUtD1r9VuxjIwM2tG4HUajY3DR7x8HBgUGNGnzoI2EPvn58+dzVRGoGtDM8f2lkaS9pcW3337r5OTErTQa9fNbt27lRZiLvgKahk3aVOvXr+dFmIu4hC2/vdEiIiIkDByDeagd0KxduzYv3RTm72a7devG720K84/frDCgibEfFAICmtlhJzK/WbNm8edoY0PzpmXLlv3999/8mFmsXLmS3pdbkHUfcH7AstC2TX8a/YEWeTEbBDStk7+/P691E5n/F6RnzpxxcXHhtzeFnaY/+QYJIaCZKwQ01fbxxx8b8momMf9P3L/88ku9NBVkhoBmdjo61Q+Ar3usFgKaRYeAJoAiENB8woQJE4oVKybewkj+/v7mDwJalTFjxuhlpdy6dYtbYIqFCxdq9eVHoSdOJC4ujpcCRVZgQJPcvXs3NDS0Vq1aFy9e5KrCUjWgGRYWZtIPJUnHjh3lTGeSEydOcCuN5uDgQEdWfr0Z6SugKS4Kyx+ZKcx8swA6lPj4+PB7m6Ju3bo3btzgpYCVUTug6efnZ+q4SJNuNjIy0tTvPDQZv1lbQBNjPygcBDQNsBOZX/Z05sSJE2/fvs0PmBe9L707t8NyM5opKSnu7u6Ojo4HDhzgKkuBgKZ1yh6tNp4mvyC9evUqv72J6Kik1UlFkBMCmrlCQFNtu3fvFhueSTT5ifuxY8f47U2hSVNBZghoZqeXU/0A+LrHmiGgWXQIaAIoAgHNJ7z55pvOzs7iLYwRHh6OK4iobdasWdnvZVYgDVeKCGga/5P3kiVLxsfHa3gild69cBMnosilHEEwJqBJDhw4QH3g0qVLuVxYqgY0X3jhBXd3d7F8Y4wdO1bmWMzJkyepkcbvJtWqVTty5Ai/2Lx0FNBMTk4uxI8UhQEDBvBS1CdS0fzGJvL09Lxy5QovCKyM2gHNhg0bVq9end/ACFp1s6NHj65QoQI3wghajd+sLaCJsR8UDgKaBtiJzGzkyJHi02vVqpWZbzecK2oDtUQ0yVIDeQsXLqS/Ljg4WNof0RUOAprWqX379qZ22lr9gvT27dvcAlNo+JNvkBYCmrlCQFNthw8fFhue8bT6ifvZs2e5BUbTqqkgMwQ0DfRyqh8AX/dYOQQ0iw4BTQBFIKD5hDlz5lSsWNGY30+4uLhs2LDh0aNH/EpQzeuvv+7h4WHMSildurS2K0UENF966SXRnvz16NEjLS2NX6kFam3z5s25Nabbvn07LwiKzMiA5sOHD/v27UtrrYjfFqga0Ozfv3+zZs2MmZPXrFlz3759kn+XIAKa3bt3F23O38iRI7W6og/RS0BTbMb8kZnOnMmGjRs38ruarnXr1jTh5wWBlVE7oNm4cePevXvL382OHj26Xr168g+qrSqgibEfFJq2Ac2MjIyUlBTqUadOnbp69eovvvji/PnzmnRulrET0Ud3+fJlakxsli1bthw9epQ+ZH5YJobvTiZMmMBVchg7dqxomEVm8mg7Dw4Opr9u4cKFXGURENC0Tj179jTpJ0Ma/oJUBDR19JNvkBYCmrlCQFNtR44coa1OFz9xv3DhAjXA1tZWtKRAGjYVZKZhQFOqCZ2OTvUXKD09fc+ePcuXL58xYwZ9qomJiQ8ePODHJKOjplLDkpKS1q9fP3HiRPovbbfXrl3jx8wOX/eYnzwn9IiGAU0dnYjLHwKaAIowR0CzZkE8PT25CU9ycXHhZzxmmDiVK1eOqxTl5uZGnQtNugzD66dRG1xdXWvUqMGvAZUZuVJo/l+pUiV+jUZoq6DGUDOozaJhuaKmlilThl+jHQ8PD26Q6ehPoDXCC4Iio+2BhoZcyBdtXbS1V6lShcuFYjhZVrZsWa5STunSpZ2cnGjryucOvPSQu7u7t7c3v0ZitJ1Tg+kDz/86viVLltR8jyhRosTTB00J0Qdl/Onap9GmxQtSGW2ftFr5XU0nQycPWvHy8uLtwMamYsWKXKscOl7QBiZ/NysObQWO3zQfVNM6opbo4pBUdBj7QaFlT7dUr16da9VHY7C8DsfUt5htVGCg952IjlDU6+Y6EqMOuVy5clJ1hoafItDmx1UyKV++vPgkae7PVRaEdj3aJGg4YUk9P02lxRYVoQJaeNWqVbkAMqH1Qp1bPsNRAzrctGrVil+mha5du1Iz8jpDngMdjzp16sSvBHiSk5OT2E58fHy4Sjk0VKADHxd0pVSpUn5+flzQCTocV65cmQvSa9u2LW111Gax+eWPjsvU6fErze65556jNhgGBvnTtqkgM8Osqn79+lylPjr6U9+e68CGhu4BAQE9evTgp5pLhw4dDJdVKoTg4GBekHa6dOlCK7FEiRLcpmxoTlSrVq1u3brxU7Wmo6bSpvjss8/m9UU51YeFhfFTzaV79+5G9vy5osMBLwiMEB4e3qZNG/F1Nn+C2ZQuXVqTmZeh365Xrx5XqU/CfrsoaIU2atSICwBQWIGBgdwR2NgcPnyYM5WK4qUDAAAAAAAAAAAAAAAAAAAAAAAAAFghtQKaawuyYMECbsKTWrduzc94zN7eXjzUu3dvrlJURESEq6srF0AOPXr0KFeuHBfyNmTIEHra22+/zWUtvPfee7Rxjho1ist5mDp1qouLy8yZM7mskZYtW4q9yVS2trYTJkzgpYASOnTo4OnpyYV8vf/++wEBAU2aNFmzZg1Xmc5wIaJu3bpxlXKeffZZf39/Lujfm2++SR+U5nurMXx8fJ4+aEqoV69eYvMrhAEDBvBS1EcrvdA//23QoMHKlSt5QWB93nnnHd4UbGyio6O5VjnVq1dv3749FyQWGhrq5eXFBYkNGzaM1hQdXrls0TD2g0J75ZVXeGuwsVm2bBnXqiMuLq5du3b8ZgUpVaoUjdb4lerT4070wQcf0MHI+FGNOYdbeaE+WVxdYOTIkVwlqzlz5lSpUqVq1apz587lKksxcOBAWgW06dKBkqt0jjanrG3833tYK65GjRq1a9fmAsiE1gsNnukfI0aMCAwMNFya187OrmzZsg0bNnzhhRdGjx5Ns2l/f3/xEq0MHz6cGta5c2f6N3XFvr6+hssj0T8qVarUqlUrOhyLJwPkw3AHmEaNGnGVcgICAmhr5IKu0O7frFkzLugEdU3e3t5ckB51p7TVUfdF/+7du7eXl5fhYlFOTk6enp6hoaE0qBBP1tbgwYOpVREREfRvyZsKMjNciS04OJirVNOpUyfDN+MFCgkJ4ZeZRVBQEL+x6czc1Bx69eqV/z3TsqNBI79MCzpq6pAhQ2rWrMlNKUi5cuWGDh3Kr1Rfv379jN+PcqDD8ahRo3hBkDeadDdo0IA/tYLQMVcMG8zGcDsy6ri4SjUy99tFQce+9u3bcwEACqtz5868/6sX0OT/5+3cuXPchCdFRUXxMx4zfK8QGxvLVYqaM2eOh4cHF0AOr7/+Ok2MuZC31NRUd3f3+Ph4Lmvh1q1btHF+/vnnXM7DjRs36tatO3/+fC5rhIY+Ym8yVXR09MOHD3kpoIQxY8Y888wzXCjI1KlTaT5w7do1LpvO8J3EzJkzuUo5/fv3p/EZF/Tv5MmT9EEdPXqUyxJr2bLl0wdNCVHXJzY/U4WGht69e5eXor5jx44V7hbntH8lJyfzUsAqXblyhbcGG5uNGzdyrXIaN248atQoLkhs9OjRjRo14oLENm3aRGvq/v37XLZoVjj2S0tL6927t52dnYODQ0xMzO3bt/kBMNGHH37IW4ONzZ9//sm1KqBV1qRJE34n44wbN45frD7d7UQZGRnjx4/nRhgnICAgPT2dX6+RIUOGUEtWrlzJZbmlpKT4+/v36tWLy5Zi/fr1YpPw8/OjHZNr9eyzzz4TfxH5/fffuVYhnTp1srxtwDL06dPnueee40Le4uLivLy8Ll26xGUt0CiFNk7aULlsNTIzM/ft20cdKf35Hh4eGzZsePToET8GhVKtWrWsrk6VMdKwYcOaN2/OBV2pVavWtGnTuKATPXv27Ny5Mxekd+TIEdrqaFzEZYlduHCBmko9D5etA3Wt1MFSN0t/O3W59OdT98uPQaEYcr0LFizgKhXIP6HTy6n+7GjjX7p0qSFia4wKFSqcPn2aX29GOmoqOX78uGEQYqTVq1fzi9WHr3vUJvkJPVK8eHHxvvPmzeMqFej0RJyR7O3tV61axQUAKCxVT1EKCGhCkRgZ0Lxz505QUJC2kQUjA5o0qu7Xr1+nTp0ePHjAVVpo2rSp2JtMEhISQn8mLwIUYlJAMy4urnTp0idOnOCy6RDQNB4Cmorr2bOn2PxM4uPjc+HCBV6EWWRPohjPzs5u69atvAiwVghoCghoSqhwF//T79hvx44dOc695vW3XL9+vW3btpMmTeIyPMU8AU061tMRn9/GaE2aNPnrr794ESqrUKECv6sptNqJMjIyaHDIjTCavb39wYMHeRHa2bx5M/9LD3SRRTBJZmZmZGQkbxM2NjExMRbwFT4CmtbJyIDmkSNHXF1dExISuKwF6wxo5vr9ZWxsbK59zr59+2rVqvXNN99wGfKAgGauENBUGwKaMqPJSI7zsfmcwFyzZk2DBg1OnTrFZciDGQKaupjQ0TCY39gU5j/Vb0BjDBppcDtMsX79el6EueioqSQpKcnwtaPxIiIizPZb1vj4eEM+z3j4usdI8p/QI2YIaOr6RJwxENAEUAQCmk9AQFNCRgY0yeDBg4OCgu7cucNls6O5Lm2cBQY0yaJFi6pUqaLthSief/55k356RTp27KjTb+glZ1JAc/v27ba2tkX55gABTeMhoKm4oUOH0iBebIFG8vf3N/8pm+zDIyM5ODhY29dpkCsENAUENCUUHh5OQwixcRpJv2O/69evi0sx5RAXF8fPeMxw7kyTU9h6YYaAJm1pISEh/B6mcHNzS01N5aWozMvLy3BHJCNptRMV+rsc8vRuAtZG3PSDNwgbG0dHxwMHDvBjuoWApnUyMqB57do1b2/vOXPmcFkL1hnQ3Lt379NnJnM9sosvfStVqnTu3DmugjwgoJkrBDTVhoCmzFasWJHVKzyBBns05ONnPCYiVmZOzOiU2gFNvUzo+vXrZ/jW3kianOo32Lp1q6nfigrmPxmro6YWLpxHcu2IVJKYmMjvajR83WMkXZzQI2oHNK3hRBwCmgCKUPUUpWCmgOaZM2eCg4PpIRqyxMTE3Lt3jx8wBQKaEjI+oEkHMDMfznOgUQhtgcYENBMSEmhsp+2v81966aVy5cpl7U9GGTt2rJXEF8zPpIAmbTa2trbbt2/nsukQ0DQeApqKmzRpEnXUYgs0Rnh4uKq3Us3Ltm3b6N2NPwlSrVq1I0eO8IvBuiGgKSCgKaEhQ4aY9HN2XY/94uPj+c940oABA/gZWQznzrSdRMhP7YDmw4cPo6Oj+Q1MVLJkyWPHjvGCVObr61urVi1+YyNouBPRLlC473LI/PnzeSlgrcSUkzeILMHBwTrN6xsgoGmdjAxoPnjwgFYi0fBGN1YY0KRhWPaL9WaX45SX4UtfbdeRXiCgmSsENNWGgKa07t6927p166xe4QlPT6MMEStdnHTSnNoBTb1M6IYOHVqpUiV+YyNodapfSE5OLsRVHoUcZ5PUpqOmUicTGhrK720iT0/PK1eu8IJUduDAAXpHfN2jOL2c0CNqBzSt4UQcApoAirCQgCYtwXD2QaDpayG+C0FAU0LGBzQ1Tz0aH9BMTU11c3PT9icRkZGRjRo1MmaUX7NmzX379mXq/6Zm0jIpoEkDVhq2FmXjQUDTeAhoKm7SpEk+WcRGmA8XF5cNGzY8evSIX2leIqA5YMAA0Zj8jRw58vbt2/xKS5Senr5nz57ly5fPmDFjy5YtiYmJcn4rRq1KSkpav379xIkT6b/bt2+/du0aP2ZGCGgKCGhKaPjw4f7+/lYy9qPdhP+YJ4WEhBh+yEd/4Nq1a8W5MzmvEUItvHz5MvVmNPkl1APTmCQjI4MfNiO1A5qHDh0y9aobBuY8oe/n5zdw4ED5dyKaljZv3pybYrqi/BJMWboYgehlmGQ82m5HjBjBW0M27777Lj9DnxDQtE5GBjQJjRzMeQmfp1lhQDPHxXqzW7RoET/p//6PRm79+/cX9VOnTuVaydDwLCUlhWZ/1MLVq1d/8cUX58+f12oYgIBmrhDQVBsCmtIS30Nl9Qo57dy5k5/0f/939epVcfkbIu3NJaTqbFUNaOpoQjd06NCGDRvKf6qfPHz4sG/fvtwa05kzPqWjphLaJfmNTde6deu7d+/yglQmApo0OxBvnT+L/7pHQXo5oUdUDWhazIm4/CGgCaAICwloPv0NXOFuAYyApoSMD2ieOHGidOnSGqYejQ9oitsnaRuwiIyMbNOmzb59+9zd3cVe87Ty5csvWbLESlILGipEQLMosywENI2HgKbiJk2aVLdu3dTUVD8/P7EdPs3JyYmepu0cWAQ0L126lNclPYSOHTueOnWKX2Nx0tPTabhF4yL+a7OxK8LVyhWXkZFBM9jAwEBu3JOo/syZM/xUs0BAU0BAU0LDhw9v1qyZlYz98krYDx48WDwhM1s6k8i2W128eHHcuHG5BgHpKLlw4UIzxzTVDmg+PZ03njkvpkWjl8mTJ8u/Ez19+UPjyXA1WV2MQPQyTCqE3377rUqVKvzHZKPGqMacENC0TsYHNBctWqRtB2iFAU2aN3l6eoq9MgdDZih7OrNwp/pV9ejRo++//556AMOQMjsaNnz77bf8VDNCQDNXCGiqDQFNaYmvErJ6hSeULl36xIkT4jnZ05kS3lxCzs5W1YCmjiZ0Q4cODQwMlP9UP6FG5hVWLpCZByE6auqDrOvQ83ubzpzn4kRA8+TJk9b8dY8a9HJCj6ga0NT7iTgjIaAJoAgLCWjm+g1cIfLmCGhKyPiApji1RyuRy2ZnfEBT3FqiX79+Wv3Cj4iAJv2DpkYzZsyoWbOm2HFobunr6zt69OgffvhBwx+0WRUENKWFgKbiRECT/nH//v3ly5fXr19fnFyj/1avXn3gwIF79uzR5NpgOYiA5l9//UW99P79+8PCwpydnf/dbbKCFyEhIatXr05PT+dnWxw6LtDUOtfzntnR50AHPn6NFuggtWHDBloj3KA8UKeXlJTEr1EfApoCApoSEgFN+oc1jP2mTp0q/rocxAWZ6EAze/ZsUSNOn8mTh0hLS+vVq5doWz7ooG/Ow6WqAc07d+4EBQXx0k23dOlSXpD6RECT/iH5TkQzYtGwQqAxj4Zdoi5GIHoZJhXa+vXr+W/IpkqVKr/99hs/Q58Q0LROxgc0t2/f7uTkpOF9DKlvoY3TqgKaNN1u0qSJ2CuzM2SGrl69Sn0p1YjRGnVENEwSr9VcZmbmvn378gmjCHSw2Lp1K7/GXBDQzBUCmmpDQFNa586dy/UO1N7e3uK2M4ZonehsaWpGEzTxWs3J3NmqGtDU0YROBDTpH5Kf6ifZpwOmoo3QnLdp0lFTaWyW66/7jEF9zq5du3hB6hMBzbNnz1rn1z0q0dEJPaJqQFO/J+JMgoCmqubPn8/bhCnMeSliUIqqpygFXEETisTUgOaAAQO4bHamBjS17TQNAU3QHAKa0kJAU3GGgKbkDAFNLluTb7/91vCNToFiYmK0+qXB1atXu3btyu0oiL+///Xr1/mVKkNAU0BAU0KGgKY12Lt379PxKZoh7tmz5/z58y1atKBiaGgoFb28vCT5pTJ1p9Rp5Hp1k1ytWLGCX6k+VQOa+VxAq0Dm7N6J3+OApuTyuoJsgWivoX2Hl2J2uhiB6GWYVGgPHz6MiIjgPyAbqqSH+En6hICmdTIpoEnbhoa3lrPCgCb1kNRPZu2UT/D19b127dqXX37p4uLi4OAwYcKEjz76iOrNfImdfNy7d4/G1aK1BXJ3dzdzZA0BzVwhoKk2BDSldf/+fdqQsnqFJ4SFhVFv9u6771JPS/3tkiVLZs2aRfXynHGSvLNVNaCpowmdIaApv8IFXwRznn4hOmpqXtfoNQZ1TeY8H2sIaHIZlKCjE3pE1YCmTk/EmQoBTVUhoGk9LCSgSUvIcZY8NDS0EJsjApoSQkBTJQhoysOkgObOnTtpM0NA0zwQ0FQcApoyy8zMXLp06dORpnxUqFDh9OnT/HozOn78uPHxCGH16tX8YpUhoCkgoCkhqwpoZmRkREdHiz0xB+rlaL5w6tQpEYikGhlOZFCDx48fL1popICAALP9uF/VgCatCzqa8NJNQasyPj6el2IWeglodujQgT8jE9Feo0kITxcjEB0Nk4oir7vprV+/np+hWwhoWicENCV34cIFf3//rP0yp/Lly8fGxtJQhw5Mffv2pZqinAdTUFpaWq4X/syHGkHJfCCgmSsENNWGgKbMjh496u7untUx5FSzZs21a9feu3fv1q1btHdTjZlnWHmRv7NVNaBJAxixcFOZf0Kno4DmjBkz+GMyUeHCBkWho6Z+8803Tk5O/PamcHV1TU5O5qWYBQKaajh9+nTVqlXFOjWJ+U/oEVUDmjrqt4sCAU1VIaBpPSwkoEnOnDkTHBxMD1G3PmrUqNu3b/MDpkBAU0KmBjQ1vLSDqQFNmmRqmP5BQFMeJgU0i/61AQKaxkNAU3EIaEorMzOTBldZfYNpzP+FfVJSkqEfM57ZhgcIaAoIaErIqgKa5NGjRzt27AgKChJfnDg7O/fp0yf73bVovYeFhdFDmu9T1CQ6iP/ba5jC3t7+4MGDvAiVqRrQvHjxIi/aRHTYooMXL8Us9BLQpD2dPyNTaHVLbl2MQHQ0TCqiuLg4bno2lSpVOnfuHD9DtxDQtE6mBjQ13GetM6BJ6A+nDrZmzZpZe6eNl5fXpEmTzpw5YzjEnzx5kmZ/hbtTluIuXLjg4+Mjmmo8M5/+RUAzVwhoqg0BTclduXKF+gQPD4+s7uHf65ZR30sTMX74//5v165d1NNKcnMJXXS2qgY069evLxZuEk0mdDoKaPbr148/KVPQpkgbJC/CXIy/dmx2mjR19erV/PamsLOz27p1Ky/CXBDQVMPly5fFOjWV+U/oEVUDmgEBAWLhJtHqRFyhIaCpKgQ0rYflBDQVgYCmhEwNaNLx7N69e1xlXqYGNL29va9du8ZVZoeApjxMCmiK78x27tzJZdMhoGk8BDQVh4CmtLZu3WrSRaEMzBxsKtxZWkIb3o0bN3gpakJAU0BAU0LWFtAskOFCcdpeI6TQwS9Cw0JeispUDWimp6fzok2xcOFC85/M1UtAs3Pnzra2tvxJGadjx45anRTWxQhEL8OkInrw4EGnTp246dlYwP3NCQKa1snUgOaiRYu4bHZWG9AskDgJ5uXldenSJa7SCB0oQ0JC/u1ETGTmwBMCmrlCQFNtCGjqHY1a6WOR4Tt+vXS2qgY0aUWYOvvQakKno4Dm6NGj7e3t+fMyjr+/v/kjj+T11183dUavVVPFaVWT0L6jyYgXAU013Lx5U6xWk2hyQo+oGtBs06aNXvrtokBAU1UIaFoPBDSfgICmhIwPaJ44caJ06dK6uMX5tWvXvL29te00EdA0swcPHiQlJa1fv37ixIn03+3btxviuSYFNKmbKlmy5LFjx7hsOgQ0jYeApuIQ0JRTcnJyIa5JKZjzsEsHzdDQUH5jE9FY4sqVK7wgNSGgKSCgKSEENHOg8Ritfc2vDBcfH1+44Bcx270+zRDQdHFxEcsvEI2E6UPT5GSuXgKaAwcOzPUu1XkZO3asVt2gLkYgehkmFZ24TB03PRuzZcFVhYCmdTI+oLlo0SLaNopyr5IiQkAzVw8fPoyIiKBPRvOkOL17dHT0vz2I6Yp4Es9UCGjmCgFNtSGgqWt//fWXuJ/41KlTuUojOupsVQ1odu3atVKlSmL5xtBwQqevW5yXKVOGPzIjhIeHK372w0hLly41bGDG0LCpW7ZsoQYYf1KLRil0vOAXmxcCmmoQAU1dnNAjqgY0u3fvXrFiRbF8Y2jYbxcFApqqQkDTepgjoLm6IHltcK1ateJnPGb4gQtNULlKUTSOcXV15QLIoVu3bm5ublzI17hx42xtbZ999lkumx2Nm2njHDFiBJfzNnv2bGdnZ19f3+XLl3OV2bVs2ZIawAVQzcqVK0eNGuXt7S36rhyofs6cOaGhoTQz4RcUhLbwsmXLvvXWW1w2HQ2CxbvTVJ+rlEMT8rp163JB/15//XX6oKZPn85lidWqVevpg6aEOnbs6OHhwQWJjRw5klb9kiVLuGzR3n///cLdC1WIiIjgBalvyJAh/K6mM9sxV3y5K1CDuVY5Xl5eISEhXJAYNZKaygWJDR06lNbUihUruGzR2rZtW6NGDS5YPer6GjduTGu/Tp06Gg7IafqQ1yjRGDTI5AWpbNCgQfyWNjbvvvsu1yqEFkiLpbmJWH7+GjVqVJRhcBFVrly5U6dOXJBYUFAQTS4MY/58lC9ffsKECatWreJXmpcuRiA6GiYVXa53/StTpsy8efP4GXpmuFHgMRVQD9a+fXsugEw6dOjw7LPPciFfffr0oc3j7bff5rLZ7d+/nxpAxzguQ5b4+Phy5crRJzN27Fiu0sgHH3xgUlQiu0qVKu3evZsXpD7Dd8MvvvgiVymnZ8+e9erV44Ku0NCIBrRc0AmaUwcHB3NBeh9//DFtdZs3b+ayxL788ktq6ooVK7gMx47RSKlYsWL0sSxZsoSrNKKjztbwVXVMTAxXKadt27Y08y1durR4i3xUrVqVNuajR4/yK80uPDy8fv36XJBbVFQUbSSenp782eXN2dl5zpw5R44c4Vea3auvvlqiRAldNFXcEKZLly6iPfnr3bs3jXj5lWa3atUqasO2bdu4DEpITEykT/X555/PWsMFoJ5t586d/EotGK4BN3LkSK5STrt27Ro2bGhMv125cmVt++0C7du3b9myZdQRUbdJ+/jKlSsPHTokHqLRwvTp08W/QXHicuamogHDgQMHeBGgE2+99RavPxubw4cPc6ZSUbx0AAAAAAAAAAAAAAAAAAAAAAAAAAArpFZA07cgeV01pEyZMvyMx2xtbcVD5cuX5ypFubu729vbcwHkQCvFwcGBC3mrXbu2+GmCh4cHV5mdj48PNaBKlSpczpv4/Tf9aVzWAu1fJUuW5AIorWbNmqVKlfq3tzJCsWLFHB0d+ZX5osVSH/V032gSwx0HaDvkKuW4uLhY0nZVvXp1+qC8vLy4LDEnJ6cibhjm4ebmZuTWri3qyWnV16pVi8sWjY6bWV1CYdDapH6JF6Qy0QHyG5uuatWqvCCVUTv5LbN+EMm1yilRokTZsmW5IDFqJDWVCxIT2z8N4bhs0VxdXXWxUszD0PVVq1aNq7RA0wHRjEJwdnamGRAvSGXZb6+m+MGRFkiLFXOoGjVq0JxOXL6F0D9oo6W5v9mONfmjox6NZLggMRoT0siQ/kGdGw34DRehsbW1pT+B+mdJBre6GIHoZZhUdNRUajA3PRtjzm/oQlFWJQAAAAAAAAAAAICC1Apo8v/zdu7cOW7Ck6KiovgZjxnOF8fGxnKVoubMmePh4cEFkMPrr7/u6enJhbxdunTJy8vLzc0tNTWVq8zu1q1btHF+/vnnXM7D3bt3W7dubWtrm5CQwFVaiIyMbNOmDRdAUcePH69WrZrorIxEz+cX5+vgwYP29vZxcXFcLhRXV1fxpjNnzuQq5fTv3799+/Zc0L+TJ0/SB3X06FEuS6xly5ZPHzQlNGnSpLp163JBYtu2baNV/9dff3HZos2fPz+rSyiMFStW8FLUd+zYMWPu1pqrzp07379/nxeksitXrvC72ths3LiRa5XTuHHjUaNGcUFio0ePbtSoERcktmnTJlpTZts8tDV8+PBmzZpxwbo9fPiwb9++tOorVapEU1Gu1cKAAQOyeguT2dnZ7d27l5eivg8//JDf2Mbmzz//5FqFpKen02K3b9/OZYn5+flNnjyZCxIbNGhQcHAwFySmixGIXoZJikhKSjJMFYUqVaqkpaXxwzr32WefiT+KDvqKCwsLCw8P5wLIpGfPnh06dOBC3rZs2ULbBq1HmgByldldv36d2kDTBy7D/fupqakiWt29e/c7d+5wrRZ+++03U8/yGdSpU+f333/nBZlF1apVxVvTjIyrlBMVFdW0aVMu6ErNmjVfffVVLuhEjx49nnvuOS5I7+DBg7TV/fjjj1yW2OnTp6mpO3fu5LLVS0xMFN+6Tpo0ias0oq/O1vAruDlz5nCVcrp27SrOZMpv8ODBzZo144Lcpk6dWqNGDS7IbfHixc7OzlyQ2yeffEJ7wR9//MHlPCQnJ5crV46G3FzWQkJCAjU1JSWFy6CEq1ev0qe6adMmLuchLS2NeunZs2dzWSPFixf/t9e2sXnjjTe4Sjk0YenUqRMX8rZ06VJPT8+zZ89yWQJ79uwxTB8KZGdnt3z5cn4lABTWxo0beaeysTlz5gyfuFQUAppQJEYGNMWm3Lp167t373KV2RkZ0Dx06BBtyV5eXpcuXeIqLSCgqZKnv9YyBr3k4cOHvIi8xcXFlSxZ8tixY1wuFAQ0jYeApuIQ0JRQu3btsroEk4WGhprzmLtgwQLD2U+TUKeXnJzMS1EfApoCApoSQkDTQPyyi1Z9p06dHjx4wLVaCAgIyOotTBYdHW3M0FEpCGgKCGgqKyIiQmxUpjLnCEQvwySlbN261XC/BaLtCRZlGQKa5Pfff+dahdDRpFevXlwAmfTp0+e5557jQh4MP9uYP38+V2nh9u3b1AbaULkM//d/8fHxWbusTRF/pVx0NMUr3FXPqUelv4KXYi6GeNO4ceO4SjnDhg1r3rw5F3SlVq1a06ZN44JO9OzZs3PnzlyQ3pEjR2irS0lJ4bLELly4QE3dt28fl62e+D2S5hcTIampqTrqbA2nKBcsWMBVyunRo0e3bt24ILehQ4cGBgZyQW4zZszw9vbmgtyWLVvm7OzMBbmJnzkVOGe8c+dOUFCQtie0Dxw4QE09e/Ysl0EJN2/epE+1wFBEZmZmv379ND8Hawhozps3j6uUExER0aVLFy7kjcZLrq6umh9wBVovS5cuzX4KyBizZ8/m1wNAYal6ilJAQBOKxJiA5v2sKxbQhqFG4Mx4xgQ06YA3YsQIelrfvn3N+a3q0xDQVMOFCxfEne5NVaJEiRs3bvBS8jZmzJimTZsWMTSGgKbxENBUHAKaEurRo0dWl2Aa6uuox+NFmMXq1av5vU1BM8ytW7fyIswCAU0BAU0JIaBpYPi+X9soBgkMDBQtMUlISAjNO3gRZoGApoCAprJiYmLERmUSM49AevfuzW9sCvMPk5SSmZkZGxvLf4aNTb9+/aiGH9M5BDStkzEBTZr1u7q6Ojo6Hjp0iKu0gIBmDtT5REZG0mdS9F8pF929e/dM/eZSoB7V/L0oApq5QkBTbQho6tTdrFu90Qei+cVESFpa2r+dl+k06WwR0BQQ0FSD5QU0yeDBg4OCgu7cucNls0NAUw1GBjTJokWLNL9BhwwBzWvXrlFHNGfOHC5rJ8fJH+O98sorvAgAKCwENJ+AgKaEjAloimtSurq6njx5kqu0YExA87fffqNRiK2t7a5du7hKIwhoKo7mIaGhoaKPMlWJEiWuXLnCC8rXf//73yKecUBA03gIaCoOAU0JDR482NQrU/r7+5s/dvDpp5/y2xuN/i7zf8eJgKaAgKaEENA0oJ2I1rsM1wjp1q0bNSOrwzBWx44dzZzOJAhoCghoKqsQdw83/wgkOjra3t6e3944mgyTFJSRkUHTCvG30DZ/7do1fkDnENC0TsYENGfOnElbRVhYmLYDQgQ0c7hx40bdunXpM6H/GvN7ZrUVK1bs3+7DFAsXLjR/YIggoJkrBDTVhoCmTqWmprq5udEHovmFzQjNNP/tvEykVWeLgKaAgKYaLDKgGRcXR70N9TlcNjsENNVgfEAzISGBuk1tT8PKENCkQy0dcGU45ua4fYrx2rVrx4t4yqlTp8SVCGhdx8TE0AyXHwCAJ1lOQPPMmTPBwcH0EHUotNvfu3ePHzAFApoSKjCgmZGR0atXL1r1ml+TssCAJs0Vp0+fTs9p3ry5+b9YzQEBTcWJ++wXjjlvHoeApvEQ0FQcApoSGjdunEm3EAoPD1c8nWMMmjTSuxs/b6xWrdqRI0f4xWaEgKaAgKaEENAUDN/3y3CNkEGDBpUtWzarwzDK2LFjNdlcEdAUENBU1qpVq0wKKGsyAqE1btJOqtUwSVm3bt0KCQkRf9HChQu5VucQ0LROBQY0f/3118qVK9NWoca43SQIaOaQkJAgjhGRkZGaJG9ycHBwKFWq1L89iBFKliwZHx+vVbMR0MwVAppqQ0BTp+Li4rI6DO1vLkFEQNPFxUU0qUDadrYIaAoIaKrBIgOamufzENBUg/EBTfF7ADrocFkLMgQ0yahRozT/BVpycrIhJ2CqAQMG8FKelJSUlGOZ5r8BFIBeWEhAk5ZgOPsg0PS1EN9dIaApoQIDmnv37rWzs6NtgwZYXKWRAgOaKSkpIgSzbt06rtIOAprKEj98yep+CsOcaRsENI2HgKbiENCU0Lhx4/z8/Hx8fLI6hvy4uLhs2LDh0aNH/ErzEgFNcZ+7Ao0cOVKrn+ghoCkgoCkhBDSFgwcPiuvhRUREaPvjLjJkyJD69esbc1KsevXq+/bt0+rLJwQ0BQQ0lbV69epixYpJPgKhNV6zZk35h0mKu3DhgvirqYNKTk7mWj1DQNM65R/QpKNqTEwMbRJNmzalgxHXagQBzRymTp2atb/arF+/nqs05ejoGB4eLpqUv65du2p790YENHOFgKbaENDUI5oO06SYPg2aINM0mWu1IwKaAwcOpP8WqEePHtp2tghoCghoqsEiA5onTpwoXbq0hvk8BDTVYHxAU9zaW9svNSQJaC5atEjbq8nS0b9v377ioyiEXH/Rkdcyly5dys8AgGwsJKBJfbqoNyjcHesQ0JRQ/gHN9PT0pk2b0hqPjIzMyMjgWo3kH9A0XOkzODhYhh8NIKCprLS0tCpVqvzb+5iO+itz3vIeAU3jIaCpOAQ0JTRu3LiAgACaE/r5+WX1DblwcnKidaftXQlEQJMm8/lnNDt27Hjq1Cl+jRYQ0BQQ0JQQApqCuJMpkeEaIUOGDGnRosW+ffvyuZKxm5tbuXLl4uPj+TVaQEBTQEBTWSKgKfkIhNY4NU/+YZIaDNc/sIzLHiCgaZ3yD2geOHDA0dHR1taWBoRcpR0ENLOjPqd58+b0gZQsWfLYsWNcqynaVJYvXz579uysXiR3derUqVix4s8//8yv0QgCmrlCQFNtCGjq0W+//Sa+zpDh5hJEBDQ///zz/DtbDw+PZs2a/f333/wyjSCgKSCgqQaLDGheuXLF09Nzzpw5XDY7BDTVYHxAkzaS1q1b9+vXT8NL40sS0Ny+fbuTk5Mmd34TxNVMxUdhqrzCVyKAy0/KJq/LbQJYOQsJaNIeLuqzK8R3PAhoSiifgCYdyOfOnUvr2t3dXYb5f/4BzU2bNtGhy87Obu/evVylKQQ0lXXs2LGSJUtm9T0mK9wVfwsNAU3jIaCpOAQ0JSQCmvQP6oiWL19ev359cRtx+m/16tUHDhy4Z88ezX8CQURA886dO3T0379/f1hYmLOzM9WQ8uXLh4SErF69WvMr3xAENAUENCWEgCYRJwRppUtyjRAR0KR/3L59e8aMGTVr1szqPGwcHBx8fX1pP/rhhx/++eefiIgIGrpreBITAU0BAU1liYAm/UPmEYgIaNI/JB8mqeSzzz4T3z3TREPvfyYCmtYpn4DmrVu3qKuk7cHMJ2TygoBmdoYzbE2aNJFkVu7o6Ciu+XTq1CnarsqWLftvb2JjQ/9o3rz5woULL168SE2lBmv+EyAENHOFgKbaENDUo/j4+KzeQoqbSxAR0BQ/Tcyns6WJfIUKFTSP7yOgKSCgqQYLDmhqmNZCQFMNpgY0iTFbi0rkCWhSGzQ8C5r93Iip/Pz8rl27xgvKJq+ApraRXABpWUhAE1fQtGD5BDS3bt0qvh1ZsWIFV2kqn4Cm4eITMTExkhyNENBUVqEDmua/ZxwCmsZDQFNxCGhKyBDQlJwhoMllWSGgKSCgKSEENIlhwEYHoxs3bnCtdgwBzfzFxcVpe1ETBDQFBDSVZQhoyswQ0LQSmZmZ58+f/+KLL2gMs379+i1bttDmJPb9uXPn6voG7ghoWqe8ApoZGRk0faaNQZLfexMENLObP39+1s5qI8/ExxDQzB81WNsvngkCmrlCQFNtCGjqDo36DDeo0fCmw9llD2jmgybyNJ3XPA2PgKaAgKYaENBUAwKaakBA00BHAU3DVKsQ8krj4BbnACaxkIAmLcFw9kEIDQ0tRC+PgKaE8gpoGiKPNJOU5FoOeQU0adrv4+NDD0lyc3MBAU1l5fUDkfzZ2dlt3bqVF2EuCGgaDwFNxSGgKSEENJWFgKaAgKaEENAkcXFxYveU5BohRgY0jxw5QuO3Qvz+UCkIaAoIaCoLAU3ZfPvtt4br+OYqNjZWvxc/QEDTOuUa0KTNmDZm2hIkubm5gICmwYMHD2ifytpZbdavX8+1WjMyoElr0M3NLTU1lctaQEAzVwhoqg0BTd0RMUf6KCS5uQQxMqBJx/F+/frRkYKOF1ylBQQ0BQQ01WDBAU0Nz8UhoKkGUwOa2l4dX6qApobTnEIHNPNPXp04ccLd3Z2fmqVhw4bXr1/nhwEgGwsJaJIzZ86Ie9PY2dmNGjXq9u3b/IApENCUUK4BzePHj4vzTT4+PjSp5lqt5RrQTEtLozEH1bu6uiYlJXGtBBDQVFZePxDJB03jNTn5joCm8RDQVBwCmhJCQFNZCGgKCGhKCAFNGq1FRESI3VOSa4QYGdAUPwSiuSqXzQ4BTQEBTWUhoCkVwy9g86HJzwuVgoCmdXo6oJmZmbl06VJxNx6aQctz734ENA3OnTtXqVIl+jQ0TzpmZ2RA88SJE6VLl9Z2Paoa0AwPD69Xr97PP/98+vRpWlMXL16kYSoNDmme/s8///zvf//j58kHAU21IaCpOwcPHrS3t6ePQpKbSxAjA5pk0aJFVapUSUtL47IWENAUENBUgwUHNENCQu7du8dV5oWAphpMDWjSPpjrDbLNQ6qAJh3IuGx2O3fuFJ+DSYxJ45w5c6Zjx470ZJpu9+7d++rVq/wAADzJcgKaikBAU0I5ApqPHj365JNPxK0JqYs3ZsJmNjkCmpmZmTTVN5wXW7hwoaiXBAKaitu7d684y28M2jCOHDnCrzQvBDSNh4Cm4hDQlBACmspCQFNAQFNCCGgavu93cnLSahiWg5EBTXEpKQ2vEYKApoCAprIQ0JQH9S3du3cX+3j+ZPvdqfEQ0LROOQKat2/fHjZsmNgMaNfWNtiRAwKaBuvXrxfrKCgoSJ7Zn5EBTXFFOm3na6oGNP39/cXC80EjbRcXF3d398qVK3t6etaqVatOnToBAQFNmjShcW+rVq3at29PO2bXrl179uz5wgsvDBw48JVXXqF9MyYmZsKECVOmTJk5c+abb74ZGxu7ePHiZcuWrVy5cu3atbRhfPrpp1988cWOHTv27NmTmJj43Xff0SHp+PHjKSkpZ86cOX/+/KVLl65fv37z5s179+7997//5UZnQUBTbQho6s7UqVOzdlmbfv36SXKJdOMDmgkJCQ4ODhreYoIgoCkgoKkGiwxoih+x4BbnFsb4gKb45TlucU4WLVpEbdDwLOhvv/1WpUoV8VEYiaYA8lwrDcACIKD5BAQ0JWQIaD569Oj7779v2rSp2AZITEyMJLNHwRDQpFadOnWqa9euop2kc+fOsn33j4Cm4jIyMqjX4lWer5EjRxbuKr+KQEDTeAhoKg4BTQkhoKksBDQFBDQlhIBmfHy82DfluUaIkQFNQju+hs1GQFNAQFNZCGjKQ1zOROzjBZLqNibGQ0DTOhkCmvfu3aM+x8XFRWwDdnZ2e/fuFc+RBAKaQmZmZmRkpFhNUs16jAxoav6jGqJ5QFMqDg4Ozs7Orq6uNOQoXbp09erVa9euTX/FM888QzOjli1btmnTpkOHDs8//3z37t179+794osv0hZIQ/QRI0aMGTNm0qRJ06ZNmzVr1ty5c99666133333vffeW7Vq1UcffbRhw4YtW7bQ/GLnzp0JCQn79+8/dOjQ0aNHf/rpp9TU1F9//ZWONXR4pdE77d0033z06BF/iEZDQFMlCGgScSWzrL1ElptLEOMDmrSXubm5adtyBDQFBDTVYJEBTTpW2traIqBpYYwPaIp+GwFNQnMcaoOGZ0FpwhUTEyM+CmOEh4crfioYwMqZI6BZsSDu7u7chCc5OTnxMx6j47d4qFSpUlylKFqsnZ0dF0AOtFKKFSsmVo1Y+wJNgSpUqMBPkgO1hxpWsmRJarBopEBF2sj5SdKg/cvR0ZELoBDaBuiD5RWfG/rMy5Urx8/WiKEjpWkeVymnRIkSlrRd0cqiD4pmDlyWGHWJTx80JURbnb29PRckJnLM5cuX57JFo8OWLlZKmTJlaKXIduh/Gm02//awWajNXKsc2tlplXFBYtiuJEQrhbYfLlgl+gTEvinPEZNaYuRKKV26NM2GtBpGGhItRPGDo+g26cjLZYlRt6bG+Flxxm9X2hLbFRdkpZexaxFR35LrvSCKFy9u6HboWEnTIvGVBm1guhsnG36mGKYC+jQqVarEBZAJrZeyZct6eHgYToMIPj4+/AxphISEUMOeeeYZLlurtm3blipVSqymhg0bcq0EqJOsW7cuF/JVtWpV+hPoD+Gy2ZUoUUJ8gNWrV+cq5RjWDhQCdUS0IdG4gg6jjo6OtKZozEYjDfpUaVBEM1Pqr+hQ6+7uLg6y9ARSpUqVatWqeXp60gqtUaNGzZo1a9WqVbt2bV9fXz8/P9os69WrV79+/QYNGlAHQntN48aNmzRp0qxZs+bNm7do0aJly5ZBQUHBwcGtW7du06ZNu3btqLcJDQ3t0KEDr1SFBAYG0t9Ib8dlibVq1YqaSp8Sl60SbRW0HdLnUKxYMdpOuFZrtH1Sk4zp/KmPpd2H9gsua8EwtKD9kauUQwNvwgW5UQdFw2wuyI36T9psuCC3OnXq0L7JBbnR0Yf2AjqycDlvdNhSaX8xEh0ZqQF0QOQyKEH028ZMYWh8Qs+keRmXtWA46aHGZJBGbjR+40Le2rdvX65cOc0PvjQWMpwkzweNWgMCAhQfNAIAdZu8m9nYHD58mDOViuKlAwAAAAAAAAAAAAAAAAAAAAAAAABYIbUCmlsLsnz5cm7Ck9q3b8/PeMze3l489NJLL3GVovr16+fm5sYFkENwcLBY6dkNGDCAH5bJG2+8we3LpkOHDp9++ik/QyZt27b19/fnAlgTZ2dnsXH27t2bq5TTqlWrgIAALujf4sWL6YOKjY3lssT8/PyePmhKqHv37lWrVuWCxF599VVa9R999BGXLVqXLl28vLy4ILEJEybQSlm/fj2XZbVq1ap/e9gsY8eO5VrleHt7d+rUiQsSo0ZSU7kgsXHjxtGa2rBhA5ctWseOHWvVqsUFkENoaKivry8X8jV58mTaVum/XDavkSNH/tupZfnwww+5ViFr166lxWr1p5mkSpUqPXr04ILE2rVrV6dOHS5IbNiwYXZ2dlyQFa1xWu9csFyffvppy5YtxT4uNG7c2MIOjhMnThR/2msqoMNr3bp1uQAyEddKz65EiRJRUVH8sEwmTZpEzevZsyeXQTLFihWjCQ4X8hUSEuLg4PDKK69w2ewMFz4PDAzkKuWIC58DPE1sG9HR0bytSEzcWrR///5cBmmI8369e/fmct5effVVryz0D64yO8OV2Kjb5yrl+Pn5+fr6ckFujRo1oukSF+TWqlWrsmXLckFuHTt2pLEEF+QWERFBe0GBe+KYMWNoWO7k5DRs2DCuMruBAwdSU0eMGMFlUIKYZffq1YvLeRCdNj1T24MvjeepDaRdu3ZcpZw6derUrl2bC3nr06cPNaBWrVpTpkzhKu1QG5577rkKFSqIa0LTf11dXRs0aPDiiy9OmzaNnwQAKujZs2dWb/QvtQKa/P+8nTt3jpvwpKioKH7GY46OjuKh2NhYrlLUnDlzPDw8uABy6Nevn1jpBnSwz8jI4Idl8u2333ITH2vatGl6ejo/LJnIyMg2bdpwAayJ4eZuM2fO5Crl0Ai7ffv2XNC/kydP0gd19OhRLkusZcuWTx80JTRp0qS6detyQWLbtm2jVf/XX39x2aKNGzcuICCACxLbunUrrZQ7d+5wWVZXrlz5t4fNsnHjRq5VTuPGjUeNGsUFiY0ePbpRo0ZckNimTZtoTd2/f5/LFm348OHNmjXjAshhyJAhLVq04EK+tm/fTtsq/ZfL5vXhhx9m9Wr/+vPPP7lWITRdosVq9aeZxM/Pb/LkyVyQ2KBBg4KDg7kgsdWrVxcrVowLsqI1TuudCxZt165d2e8BvX79en7AUnz22Wf8t9nY/P7771yrkE6dOvXq1YsLIJPq1avzWn9s3bp1/Jhkbt++Tc2jDZXLIBlHR8e4uDgu5Gv+/PklS5Y8duwYl82uWrVqYmunmT5XKcff318sHCCHunXr0n9TUlJ4W5HYhQsXqKn79u3jMkiDZpq0auLj47mct7t377bOQv/gKrMT94gnCxYs4Crl9OjRo1u3blyQ29ChQwMDA7kgtxkzZnh7e3NBbsuWLXN2duaC3LZs2UJ7QYF74saNG+lp2u6zBw4coDacPXuWy6CEmzdv0qf6+eefczkPhw4dorG0l5fXpUuXuEoLxYsXp9aSefPmcZVyIiIiunTpwoU8PHz4sG/fvtQAmi9wFQBYJVVPUQoIaEKR5Aho+vj40CyaH5NMjoCmq6trUlISPyYfBDStFgKaxkNAU3EIaEoIAU1lIaApIKApIQQ0JWRqQFOryBQCmgICmspCQFMq4ntusZtrGy1SCQKa1ilHQJOmzHL+3psgoCk5kwKa9vb2Bw8e5LLZIaAJmkBAE4rO1IBmkyZNNDxzi4CmgICmGiwsoHn//v2wsDB6mhpfRxoPAU01GBPQzMzMHDFiBD2tb9++Dx8+5FotaB7QPHnypKurK00rDh06xFUAYJUQ0HwCApoSyh7QFHdA4wfkkyOgSVspjTz4MfkgoGm1ENA0HgKaikNAU0IIaCoLAU0BAU0JIaApIVMDmosWLeKyeSGgKSCgqSwENGVz4MABwzk3XeySJkFA0zplD2jK/HtvgoCm5EwKaNKq3LlzJ5fNTtWA5siRI4cNG7Zq1ar33nvvnXfeeeutt+bOnTtr1qxp06ZNmjRpzJgxI0aMoPFtZGTkiy++2Lt37+7duz///PMdOnRo06ZNy5YtaTLyzDPP+Pv70/5Iu2eVKlXKly/v6urq7OxsiDqBTiGgCUVnakDT29v72rVrXGV2CGgKCGiqwcICmuLqiXS4P3nyJFdpAQFNNRgT0Pztt99oyGdra7tr1y6u0ojmAc2ZM2fSu4eFhVnJNxEAkBcENJ+AgKaEsgc0Y2JiZI48Zg9odu7cWfJDLAKaVgsBTeMhoKk4BDQlhICmshDQFBDQlBACmhIyPqC5aNEi2la1ikwhoCkgoKksBDRlk5mZOXfuXLGnT506lWstBQKa1skQ0LSzs9u7dy/XSgkBTckZH9AcPHiwBd/iXG0ZGRn37t27efPmH3/8cenSpfPnz//yyy8pKSnHjx9PSkr67rvvEhMT9+zZs2PHji+++OLTTz9dv3792rVrV65cuWzZssWLF8fGxr755pszZ86cMmXKhAkTYmJihg0b9sorrwwYMICO5qRr167PPfdc+/btW7VqRYPwJk2aBAQE1KlTp1atWp6enpUrV3Z3d3dxcXFycrK3txcfIxgJAU0oOuMDmteuXfP29sYtzmWAgKYaLCmgSUd2mijRczS/eiICmmooMKCZmZk5ffp0ek7z5s1v3brFtRrRNqD566+/0lCT3l2NL4wAQF8Q0HwCApoSMgQ06dBFBzCulZIhoEkbKo32uFZWCGhaLQQ0jYeApuIQ0JQQAprKQkBTQEBTQghoSsj4gCbt+LStIqCpLT8ENBWFgKaEbt26FRISQrtkrVq1Ll68yLUWAQFN62QIaNIKkvbm5gICmpIzMqD54MED6hAQ0LQM//vf//755587d+7Q6PfatWt0WDx37tzp06d//vnnH3/88Ycffjhw4MC+fft2795N41jaeWlq+fHHH69Zs2bFihVLlixZtGjRvHnz3njjjddee+3VV1+l1UHj+aFDh9I47aWXXurTp094eHiXLl3CwsLatWtHI7fmzZvTDLpevXq+vr7e3t5Vq1YtUaKEg4NDqVKlihcvbmdnJ1artBDQhKIzPqCZmprq5uaGgKYMENBUgyUFNPfu3UuHMBm+MUdAUw0FBjRpYODu7k7PWbduHVdpR8OAZmZmZkxMDL1106ZN09PTuRYArBUCmk9AQFNChoDmiBEjZL58JjEENHVxhWoENK0WAprGQ0BTcQhoSggBTWUhoCkgoCkhBDQlZGRA8969eyEhIRp+2Y+ApoCAprIQ0JTThQsXfHx8aK+kyYXkgTaTIKBpnURAU4Yb6hUIAU3JGRnQFBd18/T0pFkhV5kdApqW6uHDhzRvpb7ixo0btIHRsezXX39NTU09ceLE0aNHDx069O233yYkJOzcuXPbtm1btmzZsGEDjeHzvx89HevF/ejpKCbuRx8aGiruR9+0adOn70cvNq1cIaAJRWd8QJO2c3rmgAEDuKwFBDQFBDTVYDEBzfT0dDqa0BPoWKP51BIBTTXkH9A0XD81ODhY88tnEg0DmrT50WyCpqWbNm3iKgCwYghoPgEBTQmJgCYdtxISErhKVoaAppF3vdEWAppWS9WAZo0aNcTCs2vfvv1zzz3XtWvXnj17vvDCCwMGDBg8ePCwYcNGjx49fvz4KVOm0PR49uzZ1LG//fbbS5cupT3ogw8+WLduHY1WaXD/5Zdf7t69+5tvvjl48OAPP/yQnJx88uTJ06dP07EjLS3t2rVrf/75J00C//nnn//973/cDoUgoKk4BDQlhICmstQOaJYsWbJ06dKe0mvVqpUuApo0/yEIaIJWjAxo0pinUqVKVapUoZEPV5kXApoCAprKQkBTWqmpqd7e3rRj0gRN8l/JGk/Vs5/xWbgAMhEBTZqB3rhxg6tkhYCm5IwMaB48eNDe3j4oKEjDeSsCmmAe//3vf8X96K9fv37p0qX9+/fTnIXwwxJDQFNaxgc0p06dSs+cM2cOl7WAgKaAgKYaLCOgSRPJuXPn0qPu7u4yxPcR0FRD/gHNTZs22dra2tnZ7d27l6s0pVVA89atW8HBwfS+nTt3tpLvIAAgfwhoPgEBTQmJgKaXlxdN9blKViKgScd4DW9kYzwENK2W+QOa5lSsWDEnJycXF5dy5cpVrlzZ09OzZs2afn5+AQEBjRs3DgwMbNWqVUhISMeOHWm4TIPmvn37vvTSS4MHD46Ojh41atT48eMnT5782muvvfHGG/Pnz584cSItc8qUKWvWrPn44483btxIR83t27fv2rVr3759NKk7fPjwjz/++PPPP//nP/+h2d3FixevXr2anp5+586dBw8ePHr0iD8X9SGgqSwENCWEgKZQsmRJXrrc9BLQtCoIaErIyIBmfHw87VadOnWi0QVXmRcCmgICmspCQFNmR48edXd3p1GHLn6rZgwznP0ECYmAZmRkpPxRYwQ0JWdkQHP+/Pm0HrW94wECmgD5Q0BTWkYGNO/evdu6dWvNr+eCgKaAgKYaLCOguXXrVjs7O3p0xYoVXKUpBDTVkE9AMykpSXwTHRMTI8lcTJOAZkZGRlRUFL2pJEllAJABAppPQEBTQiKgqeH3kcYTAc1q1arJ/9N8goCm1bLsgKZsaBZaokSJ0qVLu7m5VapUifoHb29vPz+/+vXrN2rUqHnz5sHBwe3atQsLC6Phe3h4eJ8+ffr37z9o0KChQ4eOHDly3Lhxr7766vTp09944w2aNixcuPDdd9+lOe3q1as/+uijjRs30kQ3Pj5+586d/v7+nTt3PnTo0LFjx3766afU1FSabdJx/cqVK9Qj3b59+/79+w8fPuT1pB0ENCWEgKayENAUENCUEAKaEjImoEmH7759+9JuNX/+fK4yOwQ0BQQ0lYWApuSOHz++Z88eLugfAprWSQQ0dXGXGwQ0JWdMQPPWrVvNmzen9ajtJXUR0ATIHwKa0jIyoHno0CHqkzW/ngsCmgICmmqwgICmIZwnw83NBQQ01ZBXQJMOtT4+PvRQsBw3NxfMH9DMzMyMjY2ld8TNzQEgOwQ0n4CApoREQFPbHx8bSQQ0GzVqJH+WlCCgabUQ0LRmdnZ2NA8pVaqUm5tbxYoVq1atSqvM19e3Xr16DRs2bN68eVBQUNu2bTt06NC5c+cePXr07t27f//+L7/88pAhQ0aOHDl27NhJkyZNmzbt9ddfnzt37ltvvfXuu+++9957q1at+vDDDzds2EBz8m3btu3cuTMhIYG6xEOHDh09evTEiROnTp369ddfaWIWHR2NgKZsENBUFgKaAgKaEkJAU0LGBDRPnjxJgzeaCNNRlavMDgFNAQFNZSGgCeaEgKZ1EgFNba+wZSQENCVnTEBz165dtra2VapU+e2337hKCwhoAuQPAU1pGRPQzMzMHDFiBD2tb9++2l6JAAFNAQFNNeg9oHn8+HExGvHx8aEul2u1hoCmGnINaKalpTVp0oTqXV1dk5KSuFYCZg5o0gFr6dKl4jqyUVFRkiSVAUAGCGg+AQFNCYmApoYXjDGeCGjqJfWIgKbVQkATNNS6dWsENGWDgKayENAUENCUEAKaEjImoEkDNtqnwsLC7t+/z1Vmh4CmgICmshDQBHNCQNM6Va9enfqZY8eOcVliCGhKrsCApuGS5yNGjND2No4IaALkDwFNaRkT0Pztt9+qVKlia2u7a9curtIIApoCAppq0G9A89GjR5988ok4d21nZ6ftNcVzQEBTDTkCmjQGpsOrYSy6cOFCUS8JcwY0aXI3bNgw8XZ+fn5paWn8AAAAApo5IKApIRHQ1MUNiURAs1OnTlyWGwKaVgsBTdAQApoSQkBTWQhoCghoSggBTQkVGND89ddfK1euTPuUGv2J8RDQFBDQVBYCmmBOCGhap+rVqzs4OKSmpnJZYghoSq7AgOaBAwfoOUTDS54LCGgC5A8BTWkVGNDMzMycPn06Pad58+aa3zMXAU0BAU016DGg+ejRo++//75p06ZivyAxMTHa/mQlBwQ01WAIaNK6PnXqVNeuXbNW/r86d+6s4e/Mc2WegOa9e/dWr17t4uIi3svOzm7v3r3iOQAAgjkCmu8U5LXXXuMmPKlFixb8jMeKFSsmHqJenqsU9fzzz5cpU4YLIIfGjRvTGo+KiuKyxEaNGkVNpTEol+XWrFmzWrVqcQGsiZOTU1Y/atOxY0euUk65cuXEwgFyRd1OpUqVeHOR2CuvvEKtpakaly1a27ZtPTw8uCCxl19+mVZKbGwsl2X1xhtvZG3s/xo4cCDXKsfx8a+VJFezZs2qVatyo0EOQUFBXl5eXAA5PPvss9WrV+fCUxYvXty6dWvaoTw9PefMmcO1WnjxxRfFrk3mzp3LtQqhBdJidTHdq1ixYvv27bkgscDAQOqEuSCxvn372tnZcUFWtMZpvXMB9GzQoEGiE/sWrAnNPWnw/Nlnn3FZYjt37qTtk6YSXAbJODg4jB8/ngtP2bNnT4sWLWgNtmnT5uuvv+ZajVSoUCGrt7Pp3bs3VwFANp9++intIG+//TaXQRpffvklrRqa+XL5KR9++GGZMmXoOdOmTeMq7djb2//b1drYREdHc5VygoODg4KCuCC3rl271q1blwtyGzhwoIeHBxfkNmbMmBIlSnBBbq+//jrtBTTVMlwURggICPjqq6/4SXJYsmQJNWzDhg1cBiXs2LGDPtXw8HDaubLWPKPipk2b+EnSMATrhwwZwlXKad269TPPPBMWFibuaW4QFRWVmJjITwIAyJL9S+TDhw9zplJRvHQAAAAAAAAAAAAAAAAAAAAAAAAAACukVkCzcUHq1atXJjfu7u78jMf4gTJlqlSpwlUAUCjlypUrXbo0F8CacDdapkzlypW5SjuNGjVq2LDhM88806BBg4CAgPr16/v7+9etW7dOnTp+fn6+vr61a9f28fGpVatWzZo1vb29a9SoUb16dS8vL09Pz2rVqlWtWpUOBx4eHvS3VKpUqWLFiuXLl6djB23ebm5uZcuWdXV1pb/UxcWFtvZSpUo5OzuXLFnSycmpRIkSxYsXd3R0dHBwKFasmJ2dna2tLR8MQU20IujD59UvMdreqLW0WXLZotGOQzsFFyRGPQCtFOouuCwr6spEH0uoy+JaAAnQIZKOg1wAOdCgJa+VQt0dDV2o36POhAZLXKsRGn2Jbo0ofnCkBdKfSUdeLkuMxjA04OSCxGi7oo2HCxKjIT2NwLkgK1rjuhi7QoFoJCk6MZr9AQCYisYqdnZ2XHgKPUrooMZlTYnGEEnaAwBgPOq78upsDdcky6c3NifRGKJGe6gD10sfrq+m0vrigtzE1s4FuYlPNQdJdtIcdPSp6oj4VHOQtk/g9qmzifKinyTnvgAAmsveeaoV0OT/A4BMIiMj27RpwwUAyPLw4cP79+/funXrxo0bV65cSUlJSU5OTkpK+umnn44ePXro0KH9+/d//fXXO3fujI+P37p164YNGz766KPVq1e/995777777sKFC+fNm/f6669Pnz791VdfHTt27MiRI4cOHTpo0KD+/fv36dMnPDy8c+fOYWFh7dq1CwoKat68eaNGjerXr+/r6+vt7V2tWrWKFSu6ubmJFGOu0xu9a926dd26dfnjlti2bduotX/99ReXLdq4ceMCAgK4IDHa42il3Llzh8sAYKLhw4c3a9aMCyCHIUOGtGjRggvZZGRkREVFUafn7u5OoxGutVDp6en0l27fvp3LEvPz85s8eTIXJEYjz+DgYC5IjIbQxYoV44KsaI3TeucCAABYK0dHx7i4OC5kc+vWrZCQEBrJ+Pv7X79+nWsBAMB0f/75J3Wn8fHxXM4mKSlJ3EA5JiYmMzOTay1Xjx49unXrxgW5DR06NDAwkAtymzFjhre3NxfktmzZMmdnZy7I7dVXX6UdM7tevXplZGTwwzI5cOAANe/s2bNcBiUkJiaK9W7QtGnT9PR0ftiaeHl58Ufw2Lp16/gxAACzQ0ATQEYIaALI79GjRw8ePLh9+zbNaq5evfr777/THPI///nPzz//fOzYscOHD9PE8uuvv961a9fs2bNnzpy5cePGjz/+eM2aNStWrFiyZMmiRYvmzZv3xhtvvPbaa5MnTx43btyoUaOio6MHDRr00ksv9e3bNzw8vEuXLh07dgwJCQkODg4MDGzcuHH9+vX9/Pxq1qzp6elZqVKlcuXKubi4lChRolgevwMzCQKaEkJAE8BKIKApoVwDmpmZmbGxsdTj2drabtq0iWstFwKaikNAU0EIaAIAAMk1oGn4RU3JkiV/+OEHrgUAgELJK6B54cIFHx8feojmOLdu3eJai4aAphoQ0FRDjoAm7aq0w/JjkkFAUw05Apqurq5JSUn8mJXJEdCkOYKcSWUAsBIIaALICAFNADDV//73vwcPHty5c+fPP/+8du3axYsXz507d/r06Z9//vnHH3/84YcfaKK7b9++3bt3f/nll5999tmmTZvWrVu3Zs2auLi4pUuXvv32288///z8+fN5cRJDQFNCCGgCFBECmhJ6OqCZmZlJR0xxFW0rOZ2HgKbiENBUEAKaAABAng5o0iBt/PjxNIYhsbGx1nBFNwAAVeUa0ExLS2vSpAnVW1XuBwFNNSCgqYbsAU07O7utW7fyA/JBQFMNOQKa1jwkzh7QlDmpDABWAgFNABkhoAkAkBcENCWEgCZAESGgKaEcAc3bt28PGzYs62yejZ+fX1paGj9g0RDQVBwCmgpCQBMAAEiOgCYN0rp27SrGbKGhoXfv3uUHAACgsHIENDMzM/ft21etWjXR2S5cuFDUWwMENNWAgKYasgc0Y2JiZA7nIaCphuwBzc6dO9+/f58fsD6GgKadnd3evXu5FgBAIwhoAsgIAU0AgLwgoCkhBDQBiggBTQkZApr37t1bvXq1i4tL1tk86zqdh4Cm4hDQVBACmgAAQAwBTRq3vP766w4ODmLM5u7unpKSIp4DAABFYQhoZmZmnjp1ypCDJ9aW+0FAUw0IaKrBENCsXLnyr7/+yrVSQkBTDYaAJg2V6RPmWqtkCGj26tULNzcHAM0hoAkgIwQ0AQDygoCmhBDQBCgiBDQlNGTIkGeeeWbAgAHinuYGc+fOtZ67AiGgqTgENBWEgCYAABBHR8eJEyd27NhRDNUEW1vbTZs28TMAAKBoREBz9OjRNWvWFN2s4O3tff78eX6SdUBAUw0IaKrBENAcMWKE5GexENBUgyGgGRYWZs2XzyQioEmzg127dnEVAIB2ENAEkFF0Fi4AAEA227Ztox4SAU2pIKAJUETDhw/H2E82/v7+WWcynxASEnLr1i1+hhX49ddf6a8eM2bMhg0bqKvfvn37rl279u3bd/DgwR9++CE5OTklJeWXX345f/785cuXb9y4QR/O/fv3Hz16xK83IwQ0lYWAJgAA6MK9e/dy/JZGiIqKwgVyAACUQhNA7l6zoe6XJon8DKvRunVrmtAd1oPu3bvXq1ePC3KjabKHhwcX5DZhwgR9BTRtbW0TEhK4SlYHDhwIDAxEQFNZhoCmuNK8NRMBzbp16964cYOrAAC0g4AmAAAAgKQQ0AQA0Ert2rWzzmT+f66ursnJyfywdfjll1/4jzdRsWLFSpQo4eLi4u7uXrlyZS8vLx8fH39//2eeeaZZs2ZBQUFt27YNCwvr0qVLRERE3759BwwY8MorrwwbNiwmJmbixInTpk2bNWvW3LlzFy5c+O67765YsWLNmjXr1q3btGnT559/vmPHjj179iQmJn7//fdHjx49ceJEamqqt7c3vfzq1at//vnn3bt3//nnHzkvEYGApoIQ0AQAADro29ra8vjjMTo6pKWl8TMAAKDIvvnmG+5hs4mOjn748CE/w2p4eHjw3w9WqVWrVvoKaHp6el66dImrwJqIgGbx4sWPHTvGVdZKBDQjIyOt54ZIACAzBDQBAAAAJIWAJgCAVp4OaK5bt44fsxqFDmhKwsHBwdnZ2dXVtUKFClWrVq1Ro4avr2/9+vUbN24cGBjYqlWr9u3bP/fcc926devVq9eLL74YGRk5ZMiQkSNHjh079tVXX33ttddmz549f/78t99+e9myZStXrly7du0nn3yyZcuWbdu27dy58+uvv96/f//hw4d//PHHkydPnj59+rfffrt06dL169dv3rz5999/P/2FJQKaCkJAEwAAng5oOjo6HjhwgB8GAAAlPB3QbNq0aXp6Oj9sTRDQtHK6C2iGhYU9ePCAq8CaiIBmtWrVcNlIEdDElUQBQBIIaAIAAABICgFNAACt5AhoWueNMvUe0JSBra1t8eLFS5cu7ebmVqlSJWdnZycnpzp16jRo0KBp06bPPvtsmzZtOnTo0Llz5x49evTp0+ell14aNGhQdHT06NGjJ0yYMGXKlJkzZ86ZM2fBggXvvPPOe++9t3r16o8++mjjxo2fffbZ9u3bd+/e/c0333z33XdJSUnHjx8/deoUrbULFy5cuXIlPT399u3bDx48+N///sdr1GgIaAIAgC48HdCMjY3F1XEAAJSVI6Dp6upKsw9+zMogoGnldBfQjI6O5jJYGRHQbNSoERK6IqAp/73+AcBKIKAJAAAAICkENAEAtJI9oOnj43PhwgV+wJogoGkx7O3tnZycypQpU758eQ8Pj+rVq9MWXq9evYYNGzZv3jw4OJif9xjVIKAJAADyyxHQDAkJuXXrFj8GAAAKyRHQtOYoPAKaVk53Ac033niDy2BlRECzTZs2XLZiXl5exYoVw63eAUASCGgCAAAASAoBTQAArRgCmnZ2dnv37uVaK4OAptVCQBMAAHQhe0DT3d09JSWFHwAAAOVkD2h27tz5/v37/ID1QUDTyukuoPnuu+9yGayMCGh26tSJy1bMy8vLwcEhNTWVywAAmkJAEwAAAEBSCGgCAGjFENDs1auXFd7cXEBA02ohoAkAALqQPaA5ffp03NwcAEANhoCmo6PjgQMHuNYqIaBp5XQX0Ny8eTOXwcqIgOZLL73EZSvm5eXl5OR05coVLgMAaAoBTQAAAABJIaAJAKAVEdC0tbXdtWsXV1kfBDStFgKaAACgC4aApqur68mTJ7kWAAAUZQhohoWFWfPlMwkCmlYOAU3QCwQ0DRDQBACpIKAJAAAAIKnGjRuXKVOml/RatGhBE34ENAHAkoiAZt26dW/cuMFV1ic9PT0+Pn7r1q2HDx8+cODA119/vXPnTqrZsmXLJ598snbt2vfff3/ZsmVvv/12bGzs7NmzX3vttVdffXXcuHEjR44cMmTIyy+//OKLL9Jholu3bp06dWrfvn2rVq3okEFHt/r16/v6+np7e1etWrVChQply5Z1dnZ2cHCgzxxkgIAmAADogiGgSSONBw8ecC0AACjKENCMi4vjKmtFU12yQQ/QVDWIdvLWILctW7ZMmzaNRkpcBitz8+ZN2gA+//xzLlsx+hwIFwAAtIaAJgAAAICkGjduLE6ASi4wMJD+i4AmAFgSEdCMjIzEvTLNiT7t//73v3fv3v3zzz+vXr168eLFs2fPpqam/vTTT0ePHv3+++8TExP37t27Y8eOzz///NNPP123bt2aNWtWrFjx0ksvvfDCC3Pnzn399denTZs2ceLEmJiY4cOHv/LKKwMGDKCHIiIiunTpEhYW1q5du6CgoGbNmjVs2NDf39/Hx8fLy8vDw8Pd3d3FxcXJyalYsWJZBzerhoAmAADogiGgOX/+fK4CAACliYBm8eLFjx07xlUAAAAAAGAiBDQBAAAAJIWAJgCAVkRAExcIsU6PHj26f//+7du3b9y4cfny5QsXLvzyyy8pKSnJyclJSUkHDx7ct2/f7t27t2/fvnXr1g0bNnz00UerVq1avnz5O++8s2DBgjfffHPGjBlTpkwZP378qFGjoqOjBw0a1L9//969e9esWbNGjRqhoaFt2rR59tlnmzRpEhAQUKdOHaqvVq1apUqV3NzcSpUq5ejoKOImWkFAEwAAdEEENElCQgJXAQCA0kRAkyYs1nx/CQAAAACAIkJAEwAAAEBSCGgCAGhFBDTxZT9oKCMj4969e3/99df169fT0tLOnTt3+vTpn3/++dixY4cOHdq/fz9tn1999dW2bds2b968fv36Dz74YOXKlUuXLl20aNH8+fPfeOON6dOnT5o0aezYsSNGjIiKioqMjOzXr1/Pnj27du363HPPhYSEBAcHi4N4DlRfpkwZboesENAEAAAR0HR2dk5NTeUqAABQmghoNm7c+MGDB1wFAAAAAAAmQkATAAAAQFIIaAIAaKV27dp2dna4gxuAtBDQBAAAEdB0c3O7cuUKVwEAgNJEQLNt27ZcBgAAAAAA0yGgCQAAACApBDQBALRSu3Zte3t7XI0JQFoIaAIAgAhoVq5cGXfdBQBQjwhodu7cmcsAAAAAAGA6BDQBAAAAJIWAJgCAVmrXrl28eHFcjQlAWghoAgCACGjSsI3+wVUAAKA0EdAcMGAAlwEAAAAAwHQIaAIAAABIqnHjxg4ODh7SCwwMpP8ioAkAlgQBTQDJIaAJAAAIaAIAmAECmgAAAAAARYeAJgAAAAAAAMAT/szCBQCQD3ZSAAAg+7JwAQAAVECjbnS2AAAAAABFhIAmAAAAAAAAAAAAAAAAAAAAAAAAAIDCENAEAAAAAAAAAAAAAAAAAAAAAAAAAFAYApoAAAAAAAAAAAAAAAAAAAAAAAAAAApDQBMAAAAAAAAAAAAAAAAAAAAAAAAAQGEIaAIAAAAAAAAAAAAAAAAAAAAAAAAAKAwBTQAAAAAAAAAAAAAAAAAAAAAAAAAAhSGgCQAAAAAAAAAAAAAAAAAAAAAAAACgMAQ0AQAAAAAAAAAAAAAAAAAAAAAAAAAUhoAmAAAAAAAAAAAAAAAAAAAAAAAAAIDCENAEAAAAAAAAAAAAAAAAAAAAAAAAAFAYApoAAAAAAAAAAAAAAAAAAAAAAAAAAIr6v//7fxOGN1GBPCtdAAAAAElFTkSuQmCC;" vertex="1" parent="1">
          <mxGeometry x="27" y="60" width="795.35" height="30" as="geometry" />
        </mxCell>
        <mxCell id="O5ijzV2LS1QIJ1Rby5tI-45" style="edgeStyle=orthogonalEdgeStyle;rounded=0;orthogonalLoop=1;jettySize=auto;html=1;exitX=0.5;exitY=1;exitDx=0;exitDy=0;strokeWidth=2;fillColor=#ffe6cc;strokeColor=#d79b00;" edge="1" parent="1" source="O5ijzV2LS1QIJ1Rby5tI-2" target="O5ijzV2LS1QIJ1Rby5tI-19">
          <mxGeometry relative="1" as="geometry">
            <Array as="points">
              <mxPoint x="205" y="100" />
              <mxPoint x="113" y="100" />
            </Array>
          </mxGeometry>
        </mxCell>
        <mxCell id="O5ijzV2LS1QIJ1Rby5tI-46" style="edgeStyle=orthogonalEdgeStyle;rounded=0;orthogonalLoop=1;jettySize=auto;html=1;exitX=0.5;exitY=1;exitDx=0;exitDy=0;strokeWidth=2;fillColor=#dae8fc;strokeColor=#6c8ebf;" edge="1" parent="1" source="O5ijzV2LS1QIJ1Rby5tI-2" target="O5ijzV2LS1QIJ1Rby5tI-23">
          <mxGeometry relative="1" as="geometry">
            <Array as="points">
              <mxPoint x="205" y="100" />
              <mxPoint x="326" y="100" />
            </Array>
          </mxGeometry>
        </mxCell>
        <mxCell id="O5ijzV2LS1QIJ1Rby5tI-48" style="edgeStyle=orthogonalEdgeStyle;rounded=0;orthogonalLoop=1;jettySize=auto;html=1;strokeWidth=2;fillColor=#d5e8d4;strokeColor=#82b366;" edge="1" parent="1" source="O5ijzV2LS1QIJ1Rby5tI-2" target="O5ijzV2LS1QIJ1Rby5tI-32">
          <mxGeometry relative="1" as="geometry">
            <Array as="points">
              <mxPoint x="205" y="100" />
              <mxPoint x="536" y="100" />
            </Array>
          </mxGeometry>
        </mxCell>
        <mxCell id="O5ijzV2LS1QIJ1Rby5tI-49" style="edgeStyle=orthogonalEdgeStyle;rounded=0;orthogonalLoop=1;jettySize=auto;html=1;strokeWidth=2;fillColor=#e1d5e7;strokeColor=#9673a6;" edge="1" parent="1" source="O5ijzV2LS1QIJ1Rby5tI-2" target="O5ijzV2LS1QIJ1Rby5tI-37">
          <mxGeometry relative="1" as="geometry">
            <Array as="points">
              <mxPoint x="205" y="100" />
              <mxPoint x="736" y="100" />
            </Array>
          </mxGeometry>
        </mxCell>
        <mxCell id="O5ijzV2LS1QIJ1Rby5tI-2" value="" style="rounded=0;whiteSpace=wrap;html=1;fillColor=none;strokeColor=#b85450;strokeWidth=2;" vertex="1" parent="1">
          <mxGeometry x="110" y="60" width="190" height="30" as="geometry" />
        </mxCell>
        <mxCell id="O5ijzV2LS1QIJ1Rby5tI-19" value="" style="rounded=1;whiteSpace=wrap;html=1;fillColor=#ffe6cc;strokeColor=#d79b00;" vertex="1" parent="1">
          <mxGeometry x="33.18" y="120" width="160" height="190" as="geometry" />
        </mxCell>
        <mxCell id="O5ijzV2LS1QIJ1Rby5tI-23" value="" style="rounded=1;whiteSpace=wrap;html=1;fillColor=#dae8fc;strokeColor=#6c8ebf;" vertex="1" parent="1">
          <mxGeometry x="246.18" y="120" width="160" height="190" as="geometry" />
        </mxCell>
        <mxCell id="O5ijzV2LS1QIJ1Rby5tI-26" value="Convert windowed segment to matrix form" style="rounded=1;whiteSpace=wrap;html=1;fillColor=#ffe6cc;strokeColor=#d79b00;" vertex="1" parent="1">
          <mxGeometry x="38.18" y="140" width="150" height="40" as="geometry" />
        </mxCell>
        <mxCell id="O5ijzV2LS1QIJ1Rby5tI-27" value="Compute SSIM between windowed segment and each ground truth" style="rounded=1;whiteSpace=wrap;html=1;fillColor=#ffe6cc;strokeColor=#d79b00;" vertex="1" parent="1">
          <mxGeometry x="38.18" y="190" width="150" height="50" as="geometry" />
        </mxCell>
        <mxCell id="O5ijzV2LS1QIJ1Rby5tI-52" style="edgeStyle=orthogonalEdgeStyle;rounded=0;orthogonalLoop=1;jettySize=auto;html=1;exitX=1;exitY=0.5;exitDx=0;exitDy=0;entryX=0.25;entryY=0;entryDx=0;entryDy=0;" edge="1" parent="1" source="O5ijzV2LS1QIJ1Rby5tI-28" target="O5ijzV2LS1QIJ1Rby5tI-51">
          <mxGeometry relative="1" as="geometry" />
        </mxCell>
        <mxCell id="O5ijzV2LS1QIJ1Rby5tI-28" value="Is it a pattern?" style="rounded=1;whiteSpace=wrap;html=1;fillColor=#ffe6cc;strokeColor=#d79b00;" vertex="1" parent="1">
          <mxGeometry x="38.18" y="250" width="131.82" height="30" as="geometry" />
        </mxCell>
        <mxCell id="O5ijzV2LS1QIJ1Rby5tI-29" value="Convert windowed segment to time series" style="rounded=1;whiteSpace=wrap;html=1;fillColor=#dae8fc;strokeColor=#6c8ebf;" vertex="1" parent="1">
          <mxGeometry x="251.18" y="140" width="150" height="40" as="geometry" />
        </mxCell>
        <mxCell id="O5ijzV2LS1QIJ1Rby5tI-30" value="Compute DTW between windowed segment and each ground truth" style="rounded=1;whiteSpace=wrap;html=1;fillColor=#dae8fc;strokeColor=#6c8ebf;" vertex="1" parent="1">
          <mxGeometry x="251.18" y="190" width="150" height="50" as="geometry" />
        </mxCell>
        <mxCell id="O5ijzV2LS1QIJ1Rby5tI-53" style="edgeStyle=orthogonalEdgeStyle;rounded=0;orthogonalLoop=1;jettySize=auto;html=1;exitX=1;exitY=0.5;exitDx=0;exitDy=0;entryX=0.5;entryY=0;entryDx=0;entryDy=0;" edge="1" parent="1" source="O5ijzV2LS1QIJ1Rby5tI-31" target="O5ijzV2LS1QIJ1Rby5tI-51">
          <mxGeometry relative="1" as="geometry" />
        </mxCell>
        <mxCell id="O5ijzV2LS1QIJ1Rby5tI-31" value="Is it a pattern?" style="rounded=1;whiteSpace=wrap;html=1;fillColor=#dae8fc;strokeColor=#6c8ebf;" vertex="1" parent="1">
          <mxGeometry x="251.18" y="250" width="128.82" height="30" as="geometry" />
        </mxCell>
        <mxCell id="O5ijzV2LS1QIJ1Rby5tI-32" value="" style="rounded=1;whiteSpace=wrap;html=1;fillColor=#d5e8d4;strokeColor=#82b366;" vertex="1" parent="1">
          <mxGeometry x="456.18" y="120" width="160" height="190" as="geometry" />
        </mxCell>
        <mxCell id="O5ijzV2LS1QIJ1Rby5tI-33" value="Convert windowed segment to time series" style="rounded=1;whiteSpace=wrap;html=1;fillColor=#d5e8d4;strokeColor=#82b366;" vertex="1" parent="1">
          <mxGeometry x="461.18" y="140" width="150" height="40" as="geometry" />
        </mxCell>
        <mxCell id="O5ijzV2LS1QIJ1Rby5tI-34" value="RNN Classification" style="rounded=1;whiteSpace=wrap;html=1;fillColor=#d5e8d4;strokeColor=#82b366;" vertex="1" parent="1">
          <mxGeometry x="461.18" y="190" width="150" height="50" as="geometry" />
        </mxCell>
        <mxCell id="O5ijzV2LS1QIJ1Rby5tI-56" style="edgeStyle=orthogonalEdgeStyle;rounded=0;orthogonalLoop=1;jettySize=auto;html=1;entryX=0.5;entryY=0;entryDx=0;entryDy=0;" edge="1" parent="1" source="O5ijzV2LS1QIJ1Rby5tI-35" target="O5ijzV2LS1QIJ1Rby5tI-51">
          <mxGeometry relative="1" as="geometry">
            <Array as="points">
              <mxPoint x="425" y="265" />
            </Array>
          </mxGeometry>
        </mxCell>
        <mxCell id="O5ijzV2LS1QIJ1Rby5tI-35" value="Is it a pattern?" style="rounded=1;whiteSpace=wrap;html=1;fillColor=#d5e8d4;strokeColor=#82b366;" vertex="1" parent="1">
          <mxGeometry x="480" y="250" width="131.18" height="30" as="geometry" />
        </mxCell>
        <mxCell id="O5ijzV2LS1QIJ1Rby5tI-37" value="" style="rounded=1;whiteSpace=wrap;html=1;fillColor=#e1d5e7;strokeColor=#9673a6;" vertex="1" parent="1">
          <mxGeometry x="656.18" y="120" width="160" height="190" as="geometry" />
        </mxCell>
        <mxCell id="O5ijzV2LS1QIJ1Rby5tI-38" value="Convert windowed segment to MFCC" style="rounded=1;whiteSpace=wrap;html=1;fillColor=#e1d5e7;strokeColor=#9673a6;" vertex="1" parent="1">
          <mxGeometry x="661.18" y="140" width="150" height="40" as="geometry" />
        </mxCell>
        <mxCell id="O5ijzV2LS1QIJ1Rby5tI-39" value="RNN Classification" style="rounded=1;whiteSpace=wrap;html=1;fillColor=#e1d5e7;strokeColor=#9673a6;" vertex="1" parent="1">
          <mxGeometry x="661.18" y="190" width="150" height="50" as="geometry" />
        </mxCell>
        <mxCell id="O5ijzV2LS1QIJ1Rby5tI-57" style="edgeStyle=orthogonalEdgeStyle;rounded=0;orthogonalLoop=1;jettySize=auto;html=1;entryX=0.75;entryY=0;entryDx=0;entryDy=0;" edge="1" parent="1" source="O5ijzV2LS1QIJ1Rby5tI-40" target="O5ijzV2LS1QIJ1Rby5tI-51">
          <mxGeometry relative="1" as="geometry">
            <Array as="points">
              <mxPoint x="622" y="265" />
              <mxPoint x="622" y="320" />
            </Array>
          </mxGeometry>
        </mxCell>
        <mxCell id="O5ijzV2LS1QIJ1Rby5tI-40" value="Is it a pattern?" style="rounded=1;whiteSpace=wrap;html=1;fillColor=#e1d5e7;strokeColor=#9673a6;" vertex="1" parent="1">
          <mxGeometry x="680" y="250" width="131.18" height="30" as="geometry" />
        </mxCell>
        <mxCell id="O5ijzV2LS1QIJ1Rby5tI-41" value="&lt;font style=&quot;font-size: 13px;&quot;&gt;&lt;b&gt;SSIM method&lt;/b&gt;&lt;/font&gt;" style="text;html=1;align=center;verticalAlign=middle;whiteSpace=wrap;rounded=0;" vertex="1" parent="1">
          <mxGeometry x="53.18" y="280" width="120" height="30" as="geometry" />
        </mxCell>
        <mxCell id="O5ijzV2LS1QIJ1Rby5tI-42" value="&lt;font style=&quot;font-size: 13px;&quot;&gt;&lt;b&gt;DTW method&lt;/b&gt;&lt;/font&gt;" style="text;html=1;align=center;verticalAlign=middle;whiteSpace=wrap;rounded=0;" vertex="1" parent="1">
          <mxGeometry x="266.18" y="280" width="120" height="30" as="geometry" />
        </mxCell>
        <mxCell id="O5ijzV2LS1QIJ1Rby5tI-43" value="&lt;font style=&quot;font-size: 13px;&quot;&gt;&lt;b&gt;RNN monophonic&lt;/b&gt;&lt;/font&gt;" style="text;html=1;align=center;verticalAlign=middle;whiteSpace=wrap;rounded=0;" vertex="1" parent="1">
          <mxGeometry x="476.18" y="280" width="120" height="30" as="geometry" />
        </mxCell>
        <mxCell id="O5ijzV2LS1QIJ1Rby5tI-44" value="&lt;font style=&quot;font-size: 13px;&quot;&gt;&lt;b&gt;RNN polyphonic&lt;/b&gt;&lt;/font&gt;" style="text;html=1;align=center;verticalAlign=middle;whiteSpace=wrap;rounded=0;" vertex="1" parent="1">
          <mxGeometry x="676.1800000000001" y="280" width="120" height="30" as="geometry" />
        </mxCell>
        <mxCell id="O5ijzV2LS1QIJ1Rby5tI-51" value="OSC trigger command to peripherals" style="rounded=1;whiteSpace=wrap;html=1;fillColor=#f8cecc;strokeColor=#b85450;" vertex="1" parent="1">
          <mxGeometry x="30" y="320" width="790" height="20" as="geometry" />
        </mxCell>
        <mxCell id="O5ijzV2LS1QIJ1Rby5tI-58" value="Winowed music segment" style="text;html=1;align=center;verticalAlign=middle;whiteSpace=wrap;rounded=0;" vertex="1" parent="1">
          <mxGeometry x="120.18" y="36" width="147" height="30" as="geometry" />
        </mxCell>
      </root>
    </mxGraphModel>
  </diagram>
</mxfile>
